{"glyphs":{"0":{"ha":781,"x_min":0,"x_max":0,"o":"m 28 614 l 28 429 l 296 0 l 486 0 l 753 429 l 753 614 l 486 1042 l 296 1042 l 606 522 l 390 161 l 174 521 l 390 881 l 199 881 z "},"1":{"ha":638,"x_min":0,"x_max":0,"o":"m 431 0 l 610 0 l 610 1042 l 400 1042 l 28 172 l 215 172 l 431 703 z "},"2":{"ha":781,"x_min":0,"x_max":0,"o":"m 233 171 l 753 871 l 753 1042 l 231 1042 l 231 871 l 543 871 l 28 171 l 28 0 l 753 0 l 753 171 z "},"3":{"ha":781,"x_min":0,"x_max":0,"o":"m 753 432 l 753 608 l 368 608 l 753 851 l 753 1042 l 28 1042 l 28 868 l 489 868 l 86 610 l 86 435 l 446 435 l 28 203 l 28 0 z "},"4":{"ha":781,"x_min":0,"x_max":0,"o":"m 28 621 l 28 435 l 571 435 l 571 0 l 753 0 l 753 608 l 313 608 l 753 839 l 753 1043 z "},"5":{"ha":779,"x_min":0,"x_max":0,"o":"m 751 413 l 751 608 l 208 608 l 208 868 l 751 868 l 751 1042 l 29 1042 l 29 438 l 458 438 l 28 203 l 28 -1 z "},"6":{"ha":779,"x_min":0,"x_max":0,"o":"m 436 607 l 217 607 l 536 174 l 211 174 l 211 1042 l 28 1042 l 28 0 l 751 0 l 751 174 z "},"7":{"ha":779,"x_min":0,"x_max":0,"o":"m 485 0 l 751 871 l 751 1042 l 28 1042 l 28 869 l 569 869 l 299 0 z "},"8":{"ha":781,"x_min":0,"x_max":0,"o":"m 494 521 l 753 871 l 753 1042 l 28 1042 l 28 871 l 285 521 l 28 171 l 28 0 l 753 0 l 753 171 z m 549 871 l 390 661 l 232 871 z m 390 381 l 549 171 l 232 171 z "},"9":{"ha":779,"x_min":0,"x_max":0,"o":"m 344 435 l 564 435 l 243 868 l 568 868 l 568 0 l 751 0 l 751 1042 l 28 1042 l 28 868 z "}," ":{"ha":694,"x_min":0,"x_max":0,"o":""}," ":{"ha":1111,"x_min":0,"x_max":0,"o":""},"­":{"ha":479,"x_min":0,"x_max":0,"o":"m 28 435 l 451 435 l 451 608 l 28 608 z "},"A":{"ha":996,"x_min":0,"x_max":0,"o":"m 785 174 l 240 174 l 781 1042 l 581 1042 l 28 174 l 28 0 l 968 0 l 968 1042 l 785 1042 z "},"B":{"ha":872,"x_min":0,"x_max":0,"o":"m 325 868 l 633 868 l 329 435 l 633 435 l 329 0 l 540 0 l 844 435 l 844 608 l 656 608 l 844 868 l 844 1042 l 28 1042 l 28 868 l 142 868 l 142 0 l 325 0 z "},"C":{"ha":849,"x_min":0,"x_max":0,"o":"m 28 606 l 28 435 l 821 0 l 821 204 l 219 521 l 821 838 l 821 1042 z "},"D":{"ha":932,"x_min":0,"x_max":0,"o":"m 210 199 l 210 843 l 718 521 z m 904 610 l 211 1042 l 28 1042 l 28 0 l 211 0 l 904 432 z "},"E":{"ha":771,"x_min":0,"x_max":0,"o":"m 742 -1 l 742 203 l 329 435 l 743 435 l 743 607 l 307 868 l 743 868 l 743 1042 l 28 1042 l 28 851 l 450 608 l 28 608 l 28 433 z "},"F":{"ha":789,"x_min":0,"x_max":0,"o":"m 761 808 l 394 1042 l 211 1042 l 211 608 l 28 608 l 28 435 l 211 435 l 211 0 l 394 0 l 394 435 l 761 435 l 761 608 l 394 608 l 394 839 l 761 611 z "},"G":{"ha":1131,"x_min":0,"x_max":0,"o":"m 604 521 l 604 210 l 217 518 l 821 838 l 821 1042 l 28 606 l 28 435 l 588 0 l 772 0 l 772 233 l 894 0 l 1103 0 l 819 521 z "},"H":{"ha":926,"x_min":0,"x_max":0,"o":"m 719 608 l 206 608 l 206 1042 l 28 1042 l 28 0 l 206 0 l 206 435 l 719 435 l 719 0 l 899 0 l 899 1042 l 719 1042 z "},"I":{"ha":239,"x_min":0,"x_max":0,"o":"m 28 0 l 211 0 l 211 1042 l 28 1042 z "},"J":{"ha":872,"x_min":0,"x_max":0,"o":"m 844 1042 l 661 1042 l 661 200 l 28 590 l 28 382 l 661 0 l 844 0 z "},"K":{"ha":936,"x_min":0,"x_max":0,"o":"m 211 661 l 211 1042 l 28 1042 l 28 0 l 211 0 l 211 381 l 908 0 l 908 204 l 307 521 l 908 838 l 908 1042 z "},"L":{"ha":872,"x_min":0,"x_max":0,"o":"m 844 0 l 844 174 l 218 174 l 597 1042 l 396 1042 l 28 174 l 28 0 z "},"M":{"ha":1188,"x_min":0,"x_max":0,"o":"m 510 0 l 706 0 l 981 697 l 981 0 l 1160 0 l 1160 1042 l 938 1042 l 682 381 l 682 1042 l 464 1042 l 28 0 l 229 0 l 510 699 z "},"N":{"ha":926,"x_min":0,"x_max":0,"o":"m 899 0 l 899 1042 l 719 1042 l 719 308 l 211 1042 l 28 1042 l 28 0 l 206 0 l 206 733 l 715 0 z "},"O":{"ha":1099,"x_min":0,"x_max":0,"o":"m 28 0 l 1071 0 l 1071 1042 l 28 1042 z m 210 867 l 889 867 l 889 175 l 210 175 z "},"P":{"ha":789,"x_min":0,"x_max":0,"o":"m 761 868 l 761 1042 l 28 1042 l 28 0 l 211 0 l 211 868 l 554 868 l 215 331 l 422 331 z "},"Q":{"ha":1099,"x_min":0,"x_max":0,"o":"m 28 0 l 592 0 l 714 -169 l 925 -169 l 801 0 l 1071 0 l 1071 1042 l 28 1042 z m 210 867 l 889 867 l 889 175 l 674 175 l 428 519 l 214 519 l 464 175 l 210 175 z "},"R":{"ha":789,"x_min":0,"x_max":0,"o":"m 761 435 l 761 608 l 568 608 l 761 868 l 761 1042 l 28 1042 l 28 0 l 211 0 l 211 868 l 550 868 l 243 435 l 565 435 l 385 0 l 586 0 z "},"S":{"ha":953,"x_min":0,"x_max":0,"o":"m 28 621 l 28 435 l 636 435 l 211 203 l 211 0 l 925 422 l 925 608 l 317 608 l 742 840 l 742 1043 z "},"T":{"ha":926,"x_min":0,"x_max":0,"o":"m 899 1042 l 28 1042 l 28 868 l 371 868 l 371 0 l 554 0 l 554 868 l 899 868 z "},"U":{"ha":926,"x_min":0,"x_max":0,"o":"m 899 0 l 899 1042 l 717 1042 l 717 175 l 210 175 l 210 1042 l 28 1042 l 28 0 z "},"V":{"ha":964,"x_min":0,"x_max":0,"o":"m 482 258 l 228 1042 l 28 1042 l 386 0 l 578 0 l 936 1042 l 736 1042 z "},"W":{"ha":1188,"x_min":0,"x_max":0,"o":"m 683 1042 l 482 1042 l 208 344 l 208 1042 l 28 1042 l 28 0 l 238 0 l 504 632 l 504 0 l 713 0 l 1160 1042 l 957 1042 l 683 344 z "},"X":{"ha":690,"x_min":0,"x_max":0,"o":"m 344 294 l 471 0 l 663 0 l 442 521 l 663 1042 l 469 1042 l 344 749 l 221 1042 l 28 1042 l 249 521 l 28 0 l 219 0 z "},"Y":{"ha":756,"x_min":0,"x_max":0,"o":"m 276 435 l 93 0 l 285 0 l 728 1042 l 526 1042 l 374 661 l 228 1042 l 28 1042 z "},"Z":{"ha":953,"x_min":0,"x_max":0,"o":"m 211 1042 l 211 836 l 635 608 l 28 608 l 28 415 l 742 0 l 742 206 l 315 435 l 925 435 l 925 626 z "},"Æ":{"ha":1528,"x_min":0,"x_max":0,"o":"m 240 174 l 781 1042 l 581 1042 l 28 174 l 28 0 l 968 0 l 968 321 l 1499 -1 l 1499 203 l 1086 435 l 1500 435 l 1500 607 l 1064 868 l 1500 868 l 1500 1042 l 785 1042 l 785 851 l 1207 608 l 785 608 l 785 174 z "},"Ð":{"ha":1115,"x_min":0,"x_max":0,"o":"m 211 435 l 211 0 l 394 0 l 1088 432 l 1088 610 l 394 1042 l 211 1042 l 211 608 l 28 608 l 28 435 z m 393 199 l 393 435 l 593 435 l 593 608 l 393 608 l 393 843 l 901 521 z "},"Œ":{"ha":1632,"x_min":0,"x_max":0,"o":"m 28 1042 l 28 0 l 1604 0 l 1604 174 l 1168 174 l 1604 435 l 1604 607 l 1190 607 l 1603 839 l 1603 1043 l 1071 719 l 1071 1042 z m 210 175 l 210 867 l 889 867 l 889 433 l 1307 433 l 867 175 z "},"Ø":{"ha":1099,"x_min":0,"x_max":0,"o":"m 1071 1042 l 28 1042 l 28 0 l 1071 0 z m 210 867 l 682 867 l 210 175 z m 889 175 l 418 175 l 889 867 z "},"Þ":{"ha":789,"x_min":0,"x_max":0,"o":"m 28 0 l 211 0 l 211 694 l 554 694 l 215 174 l 422 174 l 761 694 l 761 868 l 211 868 l 211 1042 l 28 1042 z "},"À":{"ha":996,"x_min":0,"x_max":0,"o":"m 785 174 l 240 174 l 781 1042 l 581 1042 l 28 174 l 28 0 l 968 0 l 968 1042 l 785 1042 z m 692 1097 l 917 1097 l 550 1346 l 550 1181 z "},"Á":{"ha":996,"x_min":0,"x_max":0,"o":"m 785 174 l 240 174 l 781 1042 l 581 1042 l 28 174 l 28 0 l 968 0 l 968 1042 l 785 1042 z m 986 1181 l 986 1346 l 619 1097 l 844 1097 z "},"Â":{"ha":996,"x_min":0,"x_max":0,"o":"m 785 174 l 240 174 l 781 1042 l 581 1042 l 28 174 l 28 0 l 968 0 l 968 1042 l 785 1042 z m 763 1201 l 967 1068 l 967 1221 l 838 1310 l 686 1310 l 557 1221 l 557 1068 z "},"Ã":{"ha":996,"x_min":0,"x_max":0,"o":"m 785 174 l 240 174 l 781 1042 l 581 1042 l 28 174 l 28 0 l 968 0 l 968 1042 l 785 1042 z m 863 1090 b 968 1135 904 1090 939 1106 l 968 1278 b 865 1219 947 1250 922 1219 b 664 1282 811 1219 731 1282 b 558 1238 622 1282 588 1267 l 558 1094 b 661 1153 579 1122 604 1153 b 863 1090 714 1153 796 1090 z "},"Ä":{"ha":996,"x_min":0,"x_max":0,"o":"m 785 174 l 240 174 l 781 1042 l 581 1042 l 28 174 l 28 0 l 968 0 l 968 1042 l 785 1042 z m 919 1300 l 781 1300 l 738 1169 l 850 1089 l 964 1169 z m 693 1300 l 554 1300 l 511 1169 l 624 1089 l 738 1169 z "},"Ā":{"ha":996,"x_min":0,"x_max":0,"o":"m 785 174 l 240 174 l 781 1042 l 581 1042 l 28 174 l 28 0 l 968 0 l 968 1042 l 785 1042 z m 554 1126 l 964 1126 l 964 1258 l 554 1258 z "},"Ă":{"ha":996,"x_min":0,"x_max":0,"o":"m 785 174 l 240 174 l 781 1042 l 581 1042 l 28 174 l 28 0 l 968 0 l 968 1042 l 785 1042 z m 754 1214 b 679 1292 711 1214 683 1246 l 543 1292 b 754 1089 547 1165 635 1089 b 967 1292 874 1089 963 1165 l 831 1292 b 754 1214 826 1246 797 1214 z "},"Å":{"ha":996,"x_min":0,"x_max":0,"o":"m 785 174 l 240 174 l 781 1042 l 581 1042 l 28 174 l 28 0 l 968 0 l 968 1042 l 785 1042 z m 635 1228 b 789 1074 635 1143 704 1074 b 943 1228 874 1074 943 1143 b 789 1382 943 1313 874 1382 b 635 1228 704 1382 635 1313 z m 735 1228 b 789 1282 735 1258 758 1282 b 843 1228 819 1282 843 1258 b 789 1174 843 1197 819 1174 b 735 1228 758 1174 735 1197 z "},"Ǻ":{"ha":996,"x_min":0,"x_max":0,"o":"m 785 174 l 240 174 l 781 1042 l 581 1042 l 28 174 l 28 0 l 968 0 l 968 1042 l 785 1042 z m 635 1214 b 789 1368 635 1299 704 1368 b 943 1214 874 1368 943 1299 b 789 1060 943 1129 874 1060 b 635 1214 704 1060 635 1129 z m 735 1214 b 789 1160 735 1183 758 1160 b 843 1214 819 1160 843 1183 b 789 1268 843 1244 819 1268 b 735 1214 758 1268 735 1244 z m 1032 1479 l 1032 1644 l 665 1396 l 890 1396 z "},"Ą":{"ha":996,"x_min":0,"x_max":0,"o":"m 940 -151 b 892 -175 924 -165 908 -175 b 864 -146 874 -175 864 -164 l 864 0 l 968 0 l 968 1042 l 785 1042 l 785 174 l 240 174 l 781 1042 l 581 1042 l 28 174 l 28 0 l 719 0 l 719 -165 b 875 -321 719 -267 775 -321 b 1010 -271 926 -321 971 -303 z "},"Ǽ":{"ha":1528,"x_min":0,"x_max":0,"o":"m 785 174 l 785 608 l 1207 608 l 785 851 l 785 1042 l 1500 1042 l 1500 868 l 1064 868 l 1500 607 l 1500 435 l 1086 435 l 1499 203 l 1499 -1 l 968 321 l 968 0 l 28 0 l 28 174 l 581 1042 l 781 1042 l 240 174 z m 1239 1181 l 1239 1346 l 872 1097 l 1097 1097 z "},"Ć":{"ha":849,"x_min":0,"x_max":0,"o":"m 821 1042 l 821 838 l 219 521 l 821 204 l 821 0 l 28 435 l 28 606 z m 821 1181 l 821 1346 l 454 1097 l 679 1097 z "},"Ĉ":{"ha":849,"x_min":0,"x_max":0,"o":"m 28 606 l 28 435 l 821 0 l 821 204 l 219 521 l 821 838 l 821 1042 z m 617 1201 l 821 1068 l 821 1221 l 692 1310 l 540 1310 l 411 1221 l 411 1068 z "},"Č":{"ha":849,"x_min":0,"x_max":0,"o":"m 28 606 l 28 435 l 821 0 l 821 204 l 219 521 l 821 838 l 821 1042 z m 411 1339 l 411 1186 l 540 1097 l 692 1097 l 821 1186 l 821 1339 l 617 1206 z "},"Ċ":{"ha":849,"x_min":0,"x_max":0,"o":"m 821 1042 l 821 838 l 219 521 l 821 204 l 821 0 l 28 435 l 28 606 z m 688 1300 l 549 1300 l 506 1169 l 618 1089 l 732 1169 z "},"Ç":{"ha":849,"x_min":0,"x_max":0,"o":"m 619 -299 b 750 -328 649 -315 699 -328 b 919 -174 836 -328 919 -276 b 821 -47 919 -101 868 -58 l 821 204 l 219 521 l 821 838 l 821 1042 l 28 606 l 28 435 l 689 72 l 689 -128 b 779 -165 751 -121 779 -137 b 735 -201 779 -189 760 -201 b 658 -171 693 -201 658 -171 z "},"Ď":{"ha":932,"x_min":0,"x_max":0,"o":"m 210 199 l 210 843 l 718 521 z m 904 610 l 211 1042 l 28 1042 l 28 0 l 211 0 l 904 432 z m 28 1339 l 28 1186 l 157 1097 l 308 1097 l 438 1186 l 438 1339 l 233 1206 z "},"Đ":{"ha":1115,"x_min":0,"x_max":0,"o":"m 211 435 l 211 0 l 394 0 l 1088 432 l 1088 610 l 394 1042 l 211 1042 l 211 608 l 28 608 l 28 435 z m 393 199 l 393 435 l 593 435 l 593 608 l 393 608 l 393 843 l 901 521 z "},"È":{"ha":771,"x_min":0,"x_max":0,"o":"m 742 -1 l 742 203 l 329 435 l 743 435 l 743 607 l 307 868 l 743 868 l 743 1042 l 28 1042 l 28 851 l 450 608 l 28 608 l 28 433 z m 371 1097 l 596 1097 l 229 1346 l 229 1181 z "},"É":{"ha":771,"x_min":0,"x_max":0,"o":"m 742 -1 l 742 203 l 329 435 l 743 435 l 743 607 l 307 868 l 743 868 l 743 1042 l 28 1042 l 28 851 l 450 608 l 28 608 l 28 433 z m 596 1181 l 596 1346 l 229 1097 l 454 1097 z "},"Ê":{"ha":771,"x_min":0,"x_max":0,"o":"m 742 -1 l 742 203 l 329 435 l 743 435 l 743 607 l 307 868 l 743 868 l 743 1042 l 28 1042 l 28 851 l 450 608 l 28 608 l 28 433 z m 386 1201 l 590 1068 l 590 1221 l 461 1310 l 310 1310 l 181 1221 l 181 1068 z "},"Ě":{"ha":771,"x_min":0,"x_max":0,"o":"m 742 -1 l 742 203 l 329 435 l 743 435 l 743 607 l 307 868 l 743 868 l 743 1042 l 28 1042 l 28 851 l 450 608 l 28 608 l 28 433 z m 181 1339 l 181 1186 l 310 1097 l 461 1097 l 590 1186 l 590 1339 l 386 1206 z "},"Ë":{"ha":771,"x_min":0,"x_max":0,"o":"m 742 -1 l 742 203 l 329 435 l 743 435 l 743 607 l 307 868 l 743 868 l 743 1042 l 28 1042 l 28 851 l 450 608 l 28 608 l 28 433 z m 567 1300 l 428 1300 l 385 1169 l 497 1089 l 611 1169 z m 340 1300 l 201 1300 l 158 1169 l 271 1089 l 385 1169 z "},"Ē":{"ha":771,"x_min":0,"x_max":0,"o":"m 742 -1 l 742 203 l 329 435 l 743 435 l 743 607 l 307 868 l 743 868 l 743 1042 l 28 1042 l 28 851 l 450 608 l 28 608 l 28 433 z m 181 1126 l 590 1126 l 590 1258 l 181 1258 z "},"Ĕ":{"ha":771,"x_min":0,"x_max":0,"o":"m 742 -1 l 742 203 l 329 435 l 743 435 l 743 607 l 307 868 l 743 868 l 743 1042 l 28 1042 l 28 851 l 450 608 l 28 608 l 28 433 z m 385 1214 b 310 1292 342 1214 314 1246 l 174 1292 b 385 1089 178 1165 265 1089 b 597 1292 504 1089 593 1165 l 461 1292 b 385 1214 457 1246 428 1214 z "},"Ė":{"ha":771,"x_min":0,"x_max":0,"o":"m 742 -1 l 742 203 l 329 435 l 743 435 l 743 607 l 307 868 l 743 868 l 743 1042 l 28 1042 l 28 851 l 450 608 l 28 608 l 28 433 z m 454 1300 l 315 1300 l 272 1169 l 385 1089 l 499 1169 z "},"Ę":{"ha":771,"x_min":0,"x_max":0,"o":"m 818 -151 b 769 -175 801 -165 786 -175 b 742 -146 751 -175 742 -164 l 742 203 l 329 435 l 743 435 l 743 607 l 307 868 l 743 868 l 743 1042 l 28 1042 l 28 851 l 450 608 l 28 608 l 28 433 l 597 86 l 597 -165 b 753 -321 597 -267 653 -321 b 888 -271 804 -321 849 -303 z "},"Ĝ":{"ha":1131,"x_min":0,"x_max":0,"o":"m 604 521 l 604 210 l 217 518 l 821 838 l 821 1042 l 28 606 l 28 435 l 588 0 l 772 0 l 772 233 l 894 0 l 1103 0 l 819 521 z m 617 1201 l 821 1068 l 821 1221 l 692 1310 l 540 1310 l 411 1221 l 411 1068 z "},"Ğ":{"ha":1131,"x_min":0,"x_max":0,"o":"m 604 521 l 604 210 l 217 518 l 821 838 l 821 1042 l 28 606 l 28 435 l 588 0 l 772 0 l 772 233 l 894 0 l 1103 0 l 819 521 z m 604 1214 b 529 1292 561 1214 533 1246 l 393 1292 b 604 1089 397 1165 485 1089 b 817 1292 724 1089 813 1165 l 681 1292 b 604 1214 676 1246 647 1214 z "},"Ġ":{"ha":1131,"x_min":0,"x_max":0,"o":"m 819 521 l 1103 0 l 894 0 l 772 233 l 772 0 l 588 0 l 28 435 l 28 606 l 821 1042 l 821 838 l 217 518 l 604 210 l 604 521 z m 772 1300 l 633 1300 l 590 1169 l 703 1089 l 817 1169 z "},"Ģ":{"ha":1131,"x_min":0,"x_max":0,"o":"m 604 521 l 604 210 l 217 518 l 821 838 l 821 1042 l 28 606 l 28 435 l 588 0 l 772 0 l 772 233 l 894 0 l 1103 0 l 819 521 z m 642 -267 b 578 -319 639 -314 606 -319 l 578 -386 b 726 -267 664 -386 704 -351 l 763 -136 l 649 -53 l 533 -136 l 578 -267 z "},"Ĥ":{"ha":926,"x_min":0,"x_max":0,"o":"m 719 608 l 206 608 l 206 1042 l 28 1042 l 28 0 l 206 0 l 206 435 l 719 435 l 719 0 l 899 0 l 899 1042 l 719 1042 z m 464 1201 l 668 1068 l 668 1221 l 539 1310 l 388 1310 l 258 1221 l 258 1068 z "},"Ħ":{"ha":926,"x_min":0,"x_max":0,"o":"m -83 751 l 28 751 l 28 0 l 206 0 l 206 435 l 719 435 l 719 0 l 899 0 l 899 751 l 1010 751 l 1010 883 l 899 883 l 899 1042 l 719 1042 l 719 883 l 206 883 l 206 1042 l 28 1042 l 28 883 l -83 883 z m 206 608 l 206 751 l 719 751 l 719 608 z "},"Ì":{"ha":239,"x_min":0,"x_max":0,"o":"m 28 0 l 211 0 l 211 1042 l 28 1042 z m -12 1097 l 213 1097 l -154 1346 l -154 1181 z "},"Í":{"ha":239,"x_min":0,"x_max":0,"o":"m 28 0 l 211 0 l 211 1042 l 28 1042 z m 392 1181 l 392 1346 l 25 1097 l 250 1097 z "},"Î":{"ha":239,"x_min":0,"x_max":0,"o":"m 28 0 l 211 0 l 211 1042 l 28 1042 z m 121 1201 l 325 1068 l 325 1221 l 196 1310 l 44 1310 l -85 1221 l -85 1068 z "},"Ĩ":{"ha":239,"x_min":0,"x_max":0,"o":"m 28 0 l 211 0 l 211 1042 l 28 1042 z m 219 1090 b 325 1135 261 1090 296 1106 l 325 1278 b 222 1219 304 1250 279 1219 b 21 1282 168 1219 88 1282 b -85 1238 -21 1282 -56 1267 l -85 1094 b 18 1153 -64 1122 -39 1153 b 219 1090 71 1153 153 1090 z "},"Ï":{"ha":239,"x_min":0,"x_max":0,"o":"m 28 0 l 211 0 l 211 1042 l 28 1042 z m 301 1300 l 163 1300 l 119 1169 l 232 1089 l 346 1169 z m 75 1300 l -64 1300 l -107 1169 l 6 1089 l 119 1169 z "},"Ī":{"ha":239,"x_min":0,"x_max":0,"o":"m 28 0 l 211 0 l 211 1042 l 28 1042 z m -85 1126 l 325 1126 l 325 1258 l -85 1258 z "},"Ĭ":{"ha":239,"x_min":0,"x_max":0,"o":"m 28 0 l 211 0 l 211 1042 l 28 1042 z m 119 1214 b 44 1292 76 1214 49 1246 l -92 1292 b 119 1089 -87 1165 0 1089 b 332 1292 239 1089 328 1165 l 196 1292 b 119 1214 192 1246 163 1214 z "},"İ":{"ha":239,"x_min":0,"x_max":0,"o":"m 28 0 l 211 0 l 211 1042 l 28 1042 z m 189 1300 l 50 1300 l 7 1169 l 119 1089 l 233 1169 z "},"Į":{"ha":239,"x_min":0,"x_max":0,"o":"m 28 0 l 49 0 l 49 -165 b 204 -321 49 -267 104 -321 b 339 -271 256 -321 300 -303 l 269 -151 b 221 -175 253 -165 238 -175 b 193 -146 203 -175 193 -164 l 193 0 l 211 0 l 211 1042 l 28 1042 z "},"Ĵ":{"ha":872,"x_min":0,"x_max":0,"o":"m 844 1042 l 661 1042 l 661 200 l 28 590 l 28 382 l 661 0 l 844 0 z m 639 1201 l 843 1068 l 843 1221 l 714 1310 l 563 1310 l 433 1221 l 433 1068 z "},"Ķ":{"ha":936,"x_min":0,"x_max":0,"o":"m 211 661 l 211 1042 l 28 1042 l 28 0 l 211 0 l 211 381 l 908 0 l 908 204 l 307 521 l 908 838 l 908 1042 z m 475 -267 b 411 -319 472 -314 439 -319 l 411 -386 b 560 -267 497 -386 538 -351 l 596 -136 l 482 -53 l 367 -136 l 411 -267 z "},"Ĺ":{"ha":872,"x_min":0,"x_max":0,"o":"m 28 0 l 28 174 l 396 1042 l 597 1042 l 218 174 l 844 174 l 844 0 z m 772 1181 l 772 1346 l 406 1097 l 631 1097 z "},"Ľ":{"ha":886,"x_min":0,"x_max":0,"o":"m 844 0 l 844 174 l 218 174 l 597 1042 l 396 1042 l 28 174 l 28 0 z m 740 799 b 667 725 736 739 703 725 l 667 651 b 833 817 769 656 797 690 l 872 950 l 746 1042 l 618 950 l 672 799 z "},"Ļ":{"ha":872,"x_min":0,"x_max":0,"o":"m 844 0 l 844 174 l 218 174 l 597 1042 l 396 1042 l 28 174 l 28 0 z m 443 -267 b 379 -319 440 -314 407 -319 l 379 -386 b 528 -267 465 -386 506 -351 l 564 -136 l 450 -53 l 335 -136 l 379 -267 z "},"Ŀ":{"ha":872,"x_min":0,"x_max":0,"o":"m 844 0 l 844 174 l 218 174 l 597 1042 l 396 1042 l 28 174 l 28 0 z m 757 524 l 615 625 l 475 524 l 528 361 l 703 361 z "},"Ł":{"ha":872,"x_min":0,"x_max":0,"o":"m 28 608 l 174 518 l 28 174 l 28 0 l 844 0 l 844 174 l 218 174 l 326 424 l 661 218 l 661 426 l 397 585 l 597 1042 l 396 1042 l 242 679 l 28 808 z "},"Ń":{"ha":926,"x_min":0,"x_max":0,"o":"m 715 0 l 206 733 l 206 0 l 28 0 l 28 1042 l 211 1042 l 719 308 l 719 1042 l 899 1042 l 899 0 z m 688 1181 l 688 1346 l 321 1097 l 546 1097 z "},"Ň":{"ha":926,"x_min":0,"x_max":0,"o":"m 899 0 l 899 1042 l 719 1042 l 719 308 l 211 1042 l 28 1042 l 28 0 l 206 0 l 206 733 l 715 0 z m 258 1339 l 258 1186 l 388 1097 l 539 1097 l 668 1186 l 668 1339 l 464 1206 z "},"Ñ":{"ha":926,"x_min":0,"x_max":0,"o":"m 715 0 l 206 733 l 206 0 l 28 0 l 28 1042 l 211 1042 l 719 308 l 719 1042 l 899 1042 l 899 0 z m 563 1090 b 668 1135 604 1090 639 1106 l 668 1278 b 565 1219 647 1250 622 1219 b 364 1282 511 1219 431 1282 b 258 1238 322 1282 288 1267 l 258 1094 b 361 1153 279 1122 304 1153 b 563 1090 414 1153 496 1090 z "},"Ņ":{"ha":926,"x_min":0,"x_max":0,"o":"m 899 0 l 899 1042 l 719 1042 l 719 308 l 211 1042 l 28 1042 l 28 0 l 206 0 l 206 733 l 715 0 z m 471 -267 b 407 -319 468 -314 435 -319 l 407 -386 b 556 -267 493 -386 533 -351 l 592 -136 l 478 -53 l 363 -136 l 407 -267 z "},"Ò":{"ha":1099,"x_min":0,"x_max":0,"o":"m 28 0 l 1071 0 l 1071 1042 l 28 1042 z m 210 867 l 889 867 l 889 175 l 210 175 z m 493 1097 l 718 1097 l 351 1346 l 351 1181 z "},"Ó":{"ha":1099,"x_min":0,"x_max":0,"o":"m 28 1042 l 1071 1042 l 1071 0 l 28 0 z m 210 175 l 889 175 l 889 867 l 210 867 z m 775 1181 l 775 1346 l 408 1097 l 633 1097 z "},"Ô":{"ha":1099,"x_min":0,"x_max":0,"o":"m 28 0 l 1071 0 l 1071 1042 l 28 1042 z m 210 867 l 889 867 l 889 175 l 210 175 z m 550 1201 l 754 1068 l 754 1221 l 625 1310 l 474 1310 l 344 1221 l 344 1068 z "},"Õ":{"ha":1099,"x_min":0,"x_max":0,"o":"m 28 1042 l 1071 1042 l 1071 0 l 28 0 z m 210 175 l 889 175 l 889 867 l 210 867 z m 649 1090 b 754 1135 690 1090 725 1106 l 754 1278 b 651 1219 733 1250 708 1219 b 450 1282 597 1219 517 1282 b 344 1238 408 1282 374 1267 l 344 1094 b 447 1153 365 1122 390 1153 b 649 1090 500 1153 582 1090 z "},"Ö":{"ha":1099,"x_min":0,"x_max":0,"o":"m 28 1042 l 1071 1042 l 1071 0 l 28 0 z m 210 175 l 889 175 l 889 867 l 210 867 z m 504 1300 l 365 1300 l 322 1169 l 435 1089 l 549 1169 z m 731 1300 l 592 1300 l 549 1169 l 661 1089 l 775 1169 z "},"Ō":{"ha":1099,"x_min":0,"x_max":0,"o":"m 28 1042 l 1071 1042 l 1071 0 l 28 0 z m 210 175 l 889 175 l 889 867 l 210 867 z m 344 1126 l 754 1126 l 754 1258 l 344 1258 z "},"Ŏ":{"ha":1099,"x_min":0,"x_max":0,"o":"m 28 0 l 1071 0 l 1071 1042 l 28 1042 z m 210 867 l 889 867 l 889 175 l 210 175 z m 549 1214 b 474 1292 506 1214 478 1246 l 338 1292 b 549 1089 342 1165 429 1089 b 761 1292 668 1089 757 1165 l 625 1292 b 549 1214 621 1246 592 1214 z "},"Ő":{"ha":1099,"x_min":0,"x_max":0,"o":"m 28 1042 l 1071 1042 l 1071 0 l 28 0 z m 210 175 l 889 175 l 889 867 l 210 867 z m 578 1179 l 578 1338 l 278 1097 l 467 1097 z m 819 1179 l 819 1338 l 514 1097 l 703 1097 z "},"Ǿ":{"ha":1099,"x_min":0,"x_max":0,"o":"m 1071 1042 l 28 1042 l 28 0 l 1071 0 z m 210 867 l 682 867 l 210 175 z m 889 175 l 418 175 l 889 867 z m 732 1181 l 732 1346 l 365 1097 l 590 1097 z "},"Ŕ":{"ha":789,"x_min":0,"x_max":0,"o":"m 586 0 l 385 0 l 565 435 l 243 435 l 550 868 l 211 868 l 211 0 l 28 0 l 28 1042 l 761 1042 l 761 868 l 568 608 l 761 608 l 761 435 z m 606 1181 l 606 1346 l 239 1097 l 464 1097 z "},"Ř":{"ha":789,"x_min":0,"x_max":0,"o":"m 761 435 l 761 608 l 568 608 l 761 868 l 761 1042 l 28 1042 l 28 0 l 211 0 l 211 868 l 550 868 l 243 435 l 565 435 l 385 0 l 586 0 z m 189 1339 l 189 1186 l 318 1097 l 469 1097 l 599 1186 l 599 1339 l 394 1206 z "},"Ŗ":{"ha":789,"x_min":0,"x_max":0,"o":"m 761 435 l 761 608 l 568 608 l 761 868 l 761 1042 l 28 1042 l 28 0 l 211 0 l 211 868 l 550 868 l 243 435 l 565 435 l 385 0 l 586 0 z m 301 -267 b 238 -319 299 -314 265 -319 l 238 -386 b 386 -267 324 -386 364 -351 l 422 -136 l 308 -53 l 193 -136 l 238 -267 z "},"Ś":{"ha":953,"x_min":0,"x_max":0,"o":"m 742 1043 l 742 840 l 317 608 l 925 608 l 925 422 l 211 0 l 211 203 l 636 435 l 28 435 l 28 621 z m 742 1181 l 742 1346 l 375 1097 l 600 1097 z "},"Ŝ":{"ha":953,"x_min":0,"x_max":0,"o":"m 28 621 l 28 435 l 636 435 l 211 203 l 211 0 l 925 422 l 925 608 l 317 608 l 742 840 l 742 1043 z m 538 1201 l 742 1068 l 742 1221 l 613 1310 l 461 1310 l 332 1221 l 332 1068 z "},"Š":{"ha":953,"x_min":0,"x_max":0,"o":"m 28 621 l 28 435 l 636 435 l 211 203 l 211 0 l 925 422 l 925 608 l 317 608 l 742 840 l 742 1043 z m 332 1339 l 332 1186 l 461 1097 l 613 1097 l 742 1186 l 742 1339 l 538 1206 z "},"Ş":{"ha":953,"x_min":0,"x_max":0,"o":"m 142 -299 b 272 -328 171 -315 221 -328 b 442 -174 358 -328 442 -276 b 343 -47 442 -101 390 -58 l 343 78 l 925 422 l 925 608 l 317 608 l 742 840 l 742 1043 l 28 621 l 28 435 l 636 435 l 211 203 l 211 -128 b 301 -165 274 -121 301 -137 b 257 -201 301 -189 282 -201 b 181 -171 215 -201 181 -171 z "},"Ș":{"ha":953,"x_min":0,"x_max":0,"o":"m 28 621 l 28 435 l 636 435 l 211 203 l 211 0 l 925 422 l 925 608 l 317 608 l 742 840 l 742 1043 z m 469 -267 b 406 -319 467 -314 433 -319 l 406 -386 b 554 -267 492 -386 532 -351 l 590 -136 l 476 -53 l 361 -136 l 406 -267 z "},"Ť":{"ha":926,"x_min":0,"x_max":0,"o":"m 899 1042 l 28 1042 l 28 868 l 371 868 l 371 0 l 554 0 l 554 868 l 899 868 z m 258 1339 l 258 1186 l 388 1097 l 539 1097 l 668 1186 l 668 1339 l 464 1206 z "},"Ţ":{"ha":926,"x_min":0,"x_max":0,"o":"m 331 -299 b 461 -328 360 -315 410 -328 b 631 -174 547 -328 631 -276 b 532 -47 631 -101 579 -58 l 532 0 l 554 0 l 554 868 l 899 868 l 899 1042 l 28 1042 l 28 868 l 371 868 l 371 0 l 400 0 l 400 -128 b 490 -165 463 -121 490 -137 b 446 -201 490 -189 471 -201 b 369 -171 404 -201 369 -171 z "},"Ț":{"ha":926,"x_min":0,"x_max":0,"o":"m 899 1042 l 28 1042 l 28 868 l 371 868 l 371 0 l 554 0 l 554 868 l 899 868 z m 457 -267 b 393 -319 454 -314 421 -319 l 393 -386 b 542 -267 479 -386 519 -351 l 578 -136 l 464 -53 l 349 -136 l 393 -267 z "},"Ŧ":{"ha":926,"x_min":0,"x_max":0,"o":"m 224 435 l 371 435 l 371 0 l 554 0 l 554 435 l 703 435 l 703 608 l 554 608 l 554 868 l 899 868 l 899 1042 l 28 1042 l 28 868 l 371 868 l 371 608 l 224 608 z "},"Ù":{"ha":926,"x_min":0,"x_max":0,"o":"m 899 0 l 899 1042 l 717 1042 l 717 175 l 210 175 l 210 1042 l 28 1042 l 28 0 z m 421 1097 l 646 1097 l 279 1346 l 279 1181 z "},"Ú":{"ha":926,"x_min":0,"x_max":0,"o":"m 899 0 l 899 1042 l 717 1042 l 717 175 l 210 175 l 210 1042 l 28 1042 l 28 0 z m 701 1181 l 701 1346 l 335 1097 l 560 1097 z "},"Û":{"ha":926,"x_min":0,"x_max":0,"o":"m 899 0 l 899 1042 l 717 1042 l 717 175 l 210 175 l 210 1042 l 28 1042 l 28 0 z m 464 1201 l 668 1068 l 668 1221 l 539 1310 l 388 1310 l 258 1221 l 258 1068 z "},"Ũ":{"ha":926,"x_min":0,"x_max":0,"o":"m 899 0 l 899 1042 l 717 1042 l 717 175 l 210 175 l 210 1042 l 28 1042 l 28 0 z m 563 1090 b 668 1135 604 1090 639 1106 l 668 1278 b 565 1219 647 1250 622 1219 b 364 1282 511 1219 431 1282 b 258 1238 322 1282 288 1267 l 258 1094 b 361 1153 279 1122 304 1153 b 563 1090 414 1153 496 1090 z "},"Ü":{"ha":926,"x_min":0,"x_max":0,"o":"m 899 0 l 899 1042 l 717 1042 l 717 175 l 210 175 l 210 1042 l 28 1042 l 28 0 z m 644 1300 l 506 1300 l 463 1169 l 575 1089 l 689 1169 z m 418 1300 l 279 1300 l 236 1169 l 349 1089 l 463 1169 z "},"Ū":{"ha":926,"x_min":0,"x_max":0,"o":"m 899 0 l 899 1042 l 717 1042 l 717 175 l 210 175 l 210 1042 l 28 1042 l 28 0 z m 258 1126 l 668 1126 l 668 1258 l 258 1258 z "},"Ŭ":{"ha":926,"x_min":0,"x_max":0,"o":"m 899 0 l 899 1042 l 717 1042 l 717 175 l 210 175 l 210 1042 l 28 1042 l 28 0 z m 463 1214 b 388 1292 419 1214 392 1246 l 251 1292 b 463 1089 256 1165 343 1089 b 675 1292 582 1089 671 1165 l 539 1292 b 463 1214 535 1246 506 1214 z "},"Ů":{"ha":926,"x_min":0,"x_max":0,"o":"m 899 0 l 899 1042 l 717 1042 l 717 175 l 210 175 l 210 1042 l 28 1042 l 28 0 z m 308 1200 b 463 1046 308 1115 378 1046 b 617 1200 547 1046 617 1115 b 463 1354 617 1285 547 1354 b 308 1200 378 1354 308 1285 z m 408 1200 b 463 1254 408 1231 432 1254 b 517 1200 493 1254 517 1231 b 463 1146 517 1169 493 1146 b 408 1200 432 1146 408 1169 z "},"Ű":{"ha":926,"x_min":0,"x_max":0,"o":"m 899 0 l 899 1042 l 717 1042 l 717 175 l 210 175 l 210 1042 l 28 1042 l 28 0 z m 547 1179 l 547 1338 l 247 1097 l 436 1097 z m 789 1179 l 789 1338 l 483 1097 l 672 1097 z "},"Ų":{"ha":926,"x_min":0,"x_max":0,"o":"m 831 -151 b 782 -175 814 -165 799 -175 b 754 -146 764 -175 754 -164 l 754 0 l 899 0 l 899 1042 l 717 1042 l 717 175 l 210 175 l 210 1042 l 28 1042 l 28 0 l 610 0 l 610 -165 b 765 -321 610 -267 665 -321 b 900 -271 817 -321 861 -303 z "},"Ẁ":{"ha":1188,"x_min":0,"x_max":0,"o":"m 683 1042 l 482 1042 l 208 344 l 208 1042 l 28 1042 l 28 0 l 238 0 l 504 632 l 504 0 l 713 0 l 1160 1042 l 957 1042 l 683 344 z m 457 1097 l 682 1097 l 315 1346 l 315 1181 z "},"Ẃ":{"ha":1188,"x_min":0,"x_max":0,"o":"m 683 1042 l 482 1042 l 208 344 l 208 1042 l 28 1042 l 28 0 l 238 0 l 504 632 l 504 0 l 713 0 l 1160 1042 l 957 1042 l 683 344 z m 858 1181 l 858 1346 l 492 1097 l 717 1097 z "},"Ŵ":{"ha":1188,"x_min":0,"x_max":0,"o":"m 683 1042 l 482 1042 l 208 344 l 208 1042 l 28 1042 l 28 0 l 238 0 l 504 632 l 504 0 l 713 0 l 1160 1042 l 957 1042 l 683 344 z m 594 1201 l 799 1068 l 799 1221 l 669 1310 l 518 1310 l 389 1221 l 389 1068 z "},"Ẅ":{"ha":1188,"x_min":0,"x_max":0,"o":"m 683 1042 l 482 1042 l 208 344 l 208 1042 l 28 1042 l 28 0 l 238 0 l 504 632 l 504 0 l 713 0 l 1160 1042 l 957 1042 l 683 344 z m 775 1300 l 636 1300 l 593 1169 l 706 1089 l 819 1169 z m 549 1300 l 410 1300 l 367 1169 l 479 1089 l 593 1169 z "},"Ỳ":{"ha":756,"x_min":0,"x_max":0,"o":"m 276 435 l 93 0 l 285 0 l 728 1042 l 526 1042 l 374 661 l 228 1042 l 28 1042 z m 281 1097 l 506 1097 l 139 1346 l 139 1181 z "},"Ý":{"ha":756,"x_min":0,"x_max":0,"o":"m 276 435 l 93 0 l 285 0 l 728 1042 l 526 1042 l 374 661 l 228 1042 l 28 1042 z m 613 1181 l 613 1346 l 246 1097 l 471 1097 z "},"Ŷ":{"ha":756,"x_min":0,"x_max":0,"o":"m 276 435 l 93 0 l 285 0 l 728 1042 l 526 1042 l 374 661 l 228 1042 l 28 1042 z m 378 1201 l 582 1068 l 582 1221 l 453 1310 l 301 1310 l 172 1221 l 172 1068 z "},"Ÿ":{"ha":756,"x_min":0,"x_max":0,"o":"m 276 435 l 93 0 l 285 0 l 728 1042 l 526 1042 l 374 661 l 228 1042 l 28 1042 z m 560 1300 l 421 1300 l 378 1169 l 490 1089 l 604 1169 z m 333 1300 l 194 1300 l 151 1169 l 264 1089 l 378 1169 z "},"Ź":{"ha":953,"x_min":0,"x_max":0,"o":"m 211 1042 l 211 836 l 635 608 l 28 608 l 28 415 l 742 0 l 742 206 l 315 435 l 925 435 l 925 626 z m 578 1181 l 578 1346 l 211 1097 l 436 1097 z "},"Ž":{"ha":953,"x_min":0,"x_max":0,"o":"m 211 1042 l 211 836 l 635 608 l 28 608 l 28 415 l 742 0 l 742 206 l 315 435 l 925 435 l 925 626 z m 211 1339 l 211 1186 l 340 1097 l 492 1097 l 621 1186 l 621 1339 l 417 1206 z "},"Ż":{"ha":953,"x_min":0,"x_max":0,"o":"m 211 1042 l 211 836 l 635 608 l 28 608 l 28 415 l 742 0 l 742 206 l 315 435 l 925 435 l 925 626 z m 546 1300 l 407 1300 l 364 1169 l 476 1089 l 590 1169 z "},"a":{"ha":817,"x_min":0,"x_max":0,"o":"m 242 174 l 606 750 l 606 0 l 789 0 l 789 1042 l 585 1042 l 28 174 l 28 0 l 547 0 l 547 174 z "},"b":{"ha":789,"x_min":0,"x_max":0,"o":"m 761 868 l 761 1042 l 28 1042 l 28 0 l 761 0 l 761 174 l 539 521 z m 553 174 l 211 174 l 211 868 l 553 868 l 332 521 z "},"c":{"ha":849,"x_min":0,"x_max":0,"o":"m 28 606 l 28 435 l 821 0 l 821 204 l 219 521 l 821 838 l 821 1042 z "},"d":{"ha":932,"x_min":0,"x_max":0,"o":"m 210 199 l 210 843 l 718 521 z m 904 610 l 211 1042 l 28 1042 l 28 0 l 211 0 l 904 432 z "},"e":{"ha":769,"x_min":0,"x_max":0,"o":"m 28 610 l 28 435 l 450 435 l 28 190 l 28 0 l 742 0 l 742 174 l 307 174 l 742 436 l 742 608 l 329 608 l 742 839 l 742 1043 z "},"f":{"ha":789,"x_min":0,"x_max":0,"o":"m 761 1042 l 199 608 l 28 608 l 28 435 l 211 435 l 211 0 l 394 0 l 394 435 l 761 435 l 761 608 l 447 608 l 761 838 z "},"g":{"ha":1032,"x_min":0,"x_max":0,"o":"m 28 606 l 28 435 l 821 0 l 1004 0 l 1004 521 l 219 521 l 821 838 l 821 1042 z m 544 349 l 821 349 l 821 204 z "},"h":{"ha":789,"x_min":0,"x_max":0,"o":"m 578 608 l 211 608 l 211 1042 l 28 1042 l 28 0 l 211 0 l 211 435 l 578 435 l 578 0 l 761 0 l 761 1042 l 578 1042 z "},"i":{"ha":789,"x_min":0,"x_max":0,"o":"m 761 0 l 761 174 l 486 174 l 486 868 l 761 868 l 761 1042 l 28 1042 l 28 868 l 303 868 l 303 174 l 28 174 l 28 0 z "},"j":{"ha":619,"x_min":0,"x_max":0,"o":"m 592 1042 l 408 1042 l 408 203 l 28 435 l 28 225 l 408 0 l 592 0 z "},"k":{"ha":758,"x_min":0,"x_max":0,"o":"m 211 668 l 211 1042 l 28 1042 l 28 0 l 211 0 l 211 374 l 731 -22 l 731 201 l 292 522 l 731 840 l 731 1064 z "},"l":{"ha":872,"x_min":0,"x_max":0,"o":"m 28 0 l 211 0 l 844 382 l 844 590 l 211 200 l 211 1042 l 28 1042 z "},"m":{"ha":1188,"x_min":0,"x_max":0,"o":"m 28 0 l 229 0 l 510 699 l 510 0 l 706 0 l 981 697 l 981 0 l 1160 0 l 1160 1042 l 938 1042 l 682 381 l 682 1042 l 464 1042 l 210 381 l 210 1042 l 28 1042 z "},"n":{"ha":890,"x_min":0,"x_max":0,"o":"m 446 772 l 669 0 l 863 0 l 542 1042 l 350 1042 l 207 544 l 207 1042 l 28 1042 l 28 0 l 219 0 z "},"o":{"ha":1167,"x_min":0,"x_max":0,"o":"m 1139 435 l 1139 606 l 703 1042 l 464 1042 l 28 606 l 28 435 l 463 0 l 704 0 z m 583 129 l 193 521 l 583 911 l 974 521 z "},"p":{"ha":872,"x_min":0,"x_max":0,"o":"m 844 868 l 844 1042 l 28 1042 l 28 868 l 142 868 l 142 0 l 325 0 l 325 868 l 636 868 l 329 435 l 532 435 z "},"q":{"ha":1167,"x_min":0,"x_max":0,"o":"m 1138 0 l 1138 175 l 782 86 l 1139 435 l 1139 606 l 703 1042 l 464 1042 l 28 606 l 28 435 l 583 -119 z m 583 128 l 193 521 l 583 911 l 974 521 z "},"r":{"ha":794,"x_min":0,"x_max":0,"o":"m 761 868 l 761 1042 l 28 1042 l 28 0 l 211 0 l 211 868 l 546 868 l 217 435 l 549 0 l 767 0 l 432 436 z "},"s":{"ha":769,"x_min":0,"x_max":0,"o":"m 28 621 l 28 435 l 453 435 l 28 203 l 28 0 l 742 422 l 742 608 l 317 608 l 742 840 l 742 1043 z "},"t":{"ha":789,"x_min":0,"x_max":0,"o":"m 28 868 l 303 868 l 303 0 l 486 0 l 486 868 l 761 868 l 761 1042 l 28 1042 z "},"u":{"ha":890,"x_min":0,"x_max":0,"o":"m 444 269 l 221 1042 l 28 1042 l 349 0 l 540 0 l 683 497 l 683 0 l 863 0 l 863 1042 l 671 1042 z "},"v":{"ha":890,"x_min":0,"x_max":0,"o":"m 349 0 l 540 0 l 863 1042 l 668 1042 l 444 268 l 222 1042 l 28 1042 z "},"w":{"ha":1161,"x_min":0,"x_max":0,"o":"m 454 414 l 710 414 l 1133 1042 l 910 1042 l 581 551 l 251 1042 l 28 1042 z m 454 0 l 710 0 l 1133 615 l 910 615 l 581 142 l 251 615 l 28 615 z "},"x":{"ha":690,"x_min":0,"x_max":0,"o":"m 344 306 l 471 0 l 663 0 l 442 521 l 663 1042 l 469 1042 l 344 738 l 221 1042 l 28 1042 l 249 521 l 28 0 l 219 0 z "},"y":{"ha":751,"x_min":0,"x_max":0,"o":"m 724 1042 l 528 1042 l 382 661 l 231 1042 l 28 1042 l 471 0 l 663 0 l 478 435 l 479 435 z "},"z":{"ha":953,"x_min":0,"x_max":0,"o":"m 211 1042 l 211 836 l 635 608 l 28 608 l 28 415 l 742 0 l 742 206 l 315 435 l 925 435 l 925 626 z "},"æ":{"ha":1347,"x_min":0,"x_max":0,"o":"m 789 729 l 789 1042 l 585 1042 l 28 174 l 28 0 l 547 0 l 547 174 l 242 174 l 606 750 l 604 435 l 1026 435 l 604 190 l 604 0 l 1319 0 l 1319 174 l 883 174 l 1319 436 l 1319 608 l 906 608 l 1318 839 l 1318 1043 z "},"ð":{"ha":932,"x_min":0,"x_max":0,"o":"m 211 0 l 904 432 l 904 610 l 211 1042 l 28 1042 l 28 0 z m 410 433 l 410 607 l 210 607 l 210 843 l 718 521 l 210 199 l 210 433 z "},"ß":{"ha":789,"x_min":0,"x_max":0,"o":"m 269 0 l 761 0 l 761 174 l 539 521 l 761 868 l 761 1042 l 28 1042 l 28 -157 l 211 -157 l 211 868 l 553 868 l 332 521 l 553 174 l 269 174 z "},"œ":{"ha":1189,"x_min":0,"x_max":0,"o":"m 1161 -1 l 1161 203 l 832 433 l 1143 433 l 1143 607 l 869 868 l 1149 868 l 1149 1042 l 463 1042 l 28 607 l 28 436 l 464 0 l 703 0 l 857 161 l 719 263 l 583 131 l 193 521 l 583 913 l 899 607 l 569 607 l 569 432 z "},"ø":{"ha":1279,"x_min":0,"x_max":0,"o":"m 899 903 l 760 1042 l 521 1042 l 85 606 l 85 435 l 258 260 l 0 0 l 243 0 l 381 139 l 519 0 l 761 0 l 1196 435 l 1196 606 l 1019 781 l 1279 1042 l 1036 1042 z m 506 264 l 894 656 l 1031 521 l 640 129 z m 640 911 l 774 778 l 383 386 l 250 521 z "},"þ":{"ha":903,"x_min":0,"x_max":0,"o":"m 142 0 l 325 0 l 325 694 l 668 694 l 329 174 l 536 174 l 875 694 l 875 868 l 325 868 l 325 1042 l 142 1042 l 142 868 l 28 868 l 28 694 l 142 694 z "},"à":{"ha":817,"x_min":0,"x_max":0,"o":"m 242 174 l 606 750 l 606 0 l 789 0 l 789 1042 l 585 1042 l 28 174 l 28 0 l 547 0 l 547 174 z m 564 1097 l 789 1097 l 422 1346 l 422 1181 z "},"á":{"ha":817,"x_min":0,"x_max":0,"o":"m 242 174 l 606 750 l 606 0 l 789 0 l 789 1042 l 585 1042 l 28 174 l 28 0 l 547 0 l 547 174 z m 960 1181 l 960 1346 l 593 1097 l 818 1097 z "},"â":{"ha":817,"x_min":0,"x_max":0,"o":"m 242 174 l 606 750 l 606 0 l 789 0 l 789 1042 l 585 1042 l 28 174 l 28 0 l 547 0 l 547 174 z m 585 1201 l 789 1068 l 789 1221 l 660 1310 l 508 1310 l 379 1221 l 379 1068 z "},"ã":{"ha":817,"x_min":0,"x_max":0,"o":"m 242 174 l 606 750 l 606 0 l 789 0 l 789 1042 l 585 1042 l 28 174 l 28 0 l 547 0 l 547 174 z m 685 1090 b 790 1135 726 1090 761 1106 l 790 1278 b 688 1219 769 1250 744 1219 b 486 1282 633 1219 553 1282 b 381 1238 444 1282 410 1267 l 381 1094 b 483 1153 401 1122 426 1153 b 685 1090 536 1153 618 1090 z "},"ä":{"ha":817,"x_min":0,"x_max":0,"o":"m 242 174 l 606 750 l 606 0 l 789 0 l 789 1042 l 585 1042 l 28 174 l 28 0 l 547 0 l 547 174 z m 744 1300 l 606 1300 l 563 1169 l 675 1089 l 789 1169 z m 518 1300 l 379 1300 l 336 1169 l 449 1089 l 563 1169 z "},"ā":{"ha":817,"x_min":0,"x_max":0,"o":"m 242 174 l 606 750 l 606 0 l 789 0 l 789 1042 l 585 1042 l 28 174 l 28 0 l 547 0 l 547 174 z m 379 1126 l 789 1126 l 789 1258 l 379 1258 z "},"ă":{"ha":817,"x_min":0,"x_max":0,"o":"m 242 174 l 606 750 l 606 0 l 789 0 l 789 1042 l 585 1042 l 28 174 l 28 0 l 547 0 l 547 174 z m 646 1214 b 571 1292 603 1214 575 1246 l 435 1292 b 646 1089 439 1165 526 1089 b 858 1292 765 1089 854 1165 l 722 1292 b 646 1214 718 1246 689 1214 z "},"å":{"ha":817,"x_min":0,"x_max":0,"o":"m 242 174 l 606 750 l 606 0 l 789 0 l 789 1042 l 585 1042 l 28 174 l 28 0 l 547 0 l 547 174 z m 542 1228 b 696 1074 542 1143 611 1074 b 850 1228 781 1074 850 1143 b 696 1382 850 1313 781 1382 b 542 1228 611 1382 542 1313 z m 642 1228 b 696 1282 642 1258 665 1282 b 750 1228 726 1282 750 1258 b 696 1174 750 1197 726 1174 b 642 1228 665 1174 642 1197 z "},"ǻ":{"ha":817,"x_min":0,"x_max":0,"o":"m 242 174 l 606 750 l 606 0 l 789 0 l 789 1042 l 585 1042 l 28 174 l 28 0 l 547 0 l 547 174 z m 542 1228 b 696 1382 542 1313 611 1382 b 850 1228 781 1382 850 1313 b 696 1074 850 1143 781 1074 b 542 1228 611 1074 542 1143 z m 642 1228 b 696 1174 642 1197 665 1174 b 750 1228 726 1174 750 1197 b 696 1282 750 1258 726 1282 b 642 1228 665 1282 642 1258 z m 953 1500 l 953 1665 l 586 1417 l 811 1417 z "},"ą":{"ha":817,"x_min":0,"x_max":0,"o":"m 846 -151 b 797 -175 829 -165 814 -175 b 769 -146 779 -175 769 -164 l 769 0 l 789 0 l 789 1042 l 585 1042 l 28 174 l 28 0 l 547 0 l 547 174 l 242 174 l 606 750 l 606 0 l 625 0 l 625 -165 b 781 -321 625 -267 681 -321 b 915 -271 832 -321 876 -303 z "},"ǽ":{"ha":1347,"x_min":0,"x_max":0,"o":"m 1318 1043 l 1318 839 l 906 608 l 1319 608 l 1319 436 l 883 174 l 1319 174 l 1319 0 l 604 0 l 604 190 l 1026 435 l 604 435 l 606 750 l 242 174 l 547 174 l 547 0 l 28 0 l 28 174 l 585 1042 l 789 1042 l 789 729 z m 1318 1181 l 1318 1346 l 951 1097 l 1176 1097 z "},"ć":{"ha":849,"x_min":0,"x_max":0,"o":"m 821 1042 l 821 838 l 219 521 l 821 204 l 821 0 l 28 435 l 28 606 z m 821 1181 l 821 1346 l 454 1097 l 679 1097 z "},"ĉ":{"ha":849,"x_min":0,"x_max":0,"o":"m 28 606 l 28 435 l 821 0 l 821 204 l 219 521 l 821 838 l 821 1042 z m 617 1201 l 821 1068 l 821 1221 l 692 1310 l 540 1310 l 411 1221 l 411 1068 z "},"č":{"ha":849,"x_min":0,"x_max":0,"o":"m 28 606 l 28 435 l 821 0 l 821 204 l 219 521 l 821 838 l 821 1042 z m 411 1339 l 411 1186 l 540 1097 l 692 1097 l 821 1186 l 821 1339 l 617 1206 z "},"ċ":{"ha":849,"x_min":0,"x_max":0,"o":"m 821 1042 l 821 838 l 219 521 l 821 204 l 821 0 l 28 435 l 28 606 z m 535 1300 l 396 1300 l 353 1169 l 465 1089 l 579 1169 z "},"ç":{"ha":849,"x_min":0,"x_max":0,"o":"m 619 -299 b 750 -328 649 -315 699 -328 b 919 -174 836 -328 919 -276 b 821 -47 919 -101 868 -58 l 821 204 l 219 521 l 821 838 l 821 1042 l 28 606 l 28 435 l 689 72 l 689 -128 b 779 -165 751 -121 779 -137 b 735 -201 779 -189 760 -201 b 658 -171 693 -201 658 -171 z "},"ď":{"ha":932,"x_min":0,"x_max":0,"o":"m 210 199 l 210 843 l 718 521 z m 904 610 l 211 1042 l 28 1042 l 28 0 l 211 0 l 904 432 z m 28 1339 l 28 1186 l 157 1097 l 308 1097 l 438 1186 l 438 1339 l 233 1206 z "},"đ":{"ha":932,"x_min":0,"x_max":0,"o":"m -42 461 l 28 461 l 28 0 l 211 0 l 904 432 l 904 610 l 211 1042 l 28 1042 l 28 593 l -42 593 z m 210 199 l 210 461 l 368 461 l 368 593 l 210 593 l 210 843 l 718 521 z "},"è":{"ha":769,"x_min":0,"x_max":0,"o":"m 28 610 l 28 435 l 450 435 l 28 190 l 28 0 l 742 0 l 742 174 l 307 174 l 742 436 l 742 608 l 329 608 l 742 839 l 742 1043 z m 517 1097 l 742 1097 l 375 1346 l 375 1181 z "},"é":{"ha":769,"x_min":0,"x_max":0,"o":"m 28 610 l 28 435 l 450 435 l 28 190 l 28 0 l 742 0 l 742 174 l 307 174 l 742 436 l 742 608 l 329 608 l 742 839 l 742 1043 z m 742 1181 l 742 1346 l 375 1097 l 600 1097 z "},"ê":{"ha":769,"x_min":0,"x_max":0,"o":"m 28 610 l 28 435 l 450 435 l 28 190 l 28 0 l 742 0 l 742 174 l 307 174 l 742 436 l 742 608 l 329 608 l 742 839 l 742 1043 z m 538 1201 l 742 1068 l 742 1221 l 613 1310 l 461 1310 l 332 1221 l 332 1068 z "},"ě":{"ha":769,"x_min":0,"x_max":0,"o":"m 28 610 l 28 435 l 450 435 l 28 190 l 28 0 l 742 0 l 742 174 l 307 174 l 742 436 l 742 608 l 329 608 l 742 839 l 742 1043 z m 332 1339 l 332 1186 l 461 1097 l 613 1097 l 742 1186 l 742 1339 l 538 1206 z "},"ë":{"ha":769,"x_min":0,"x_max":0,"o":"m 28 610 l 28 435 l 450 435 l 28 190 l 28 0 l 742 0 l 742 174 l 307 174 l 742 436 l 742 608 l 329 608 l 742 839 l 742 1043 z m 693 1300 l 554 1300 l 511 1169 l 624 1089 l 738 1169 z m 467 1300 l 328 1300 l 285 1169 l 397 1089 l 511 1169 z "},"ē":{"ha":769,"x_min":0,"x_max":0,"o":"m 28 610 l 28 435 l 450 435 l 28 190 l 28 0 l 742 0 l 742 174 l 307 174 l 742 436 l 742 608 l 329 608 l 742 839 l 742 1043 z m 331 1126 l 740 1126 l 740 1258 l 331 1258 z "},"ĕ":{"ha":769,"x_min":0,"x_max":0,"o":"m 28 610 l 28 435 l 450 435 l 28 190 l 28 0 l 742 0 l 742 174 l 307 174 l 742 436 l 742 608 l 329 608 l 742 839 l 742 1043 z m 529 1214 b 454 1292 486 1214 458 1246 l 318 1292 b 529 1089 322 1165 410 1089 b 742 1292 649 1089 738 1165 l 606 1292 b 529 1214 601 1246 572 1214 z "},"ė":{"ha":769,"x_min":0,"x_max":0,"o":"m 28 610 l 28 435 l 450 435 l 28 190 l 28 0 l 742 0 l 742 174 l 307 174 l 742 436 l 742 608 l 329 608 l 742 839 l 742 1043 z m 536 1300 l 397 1300 l 354 1169 l 467 1089 l 581 1169 z "},"ę":{"ha":769,"x_min":0,"x_max":0,"o":"m 818 -151 b 769 -175 801 -165 786 -175 b 742 -146 751 -175 742 -164 l 742 174 l 307 174 l 742 436 l 742 608 l 329 608 l 742 839 l 742 1043 l 28 610 l 28 435 l 450 435 l 28 190 l 28 0 l 597 0 l 597 -165 b 753 -321 597 -267 653 -321 b 888 -271 804 -321 849 -303 z "},"ĝ":{"ha":1032,"x_min":0,"x_max":0,"o":"m 28 606 l 28 435 l 821 0 l 1004 0 l 1004 521 l 219 521 l 821 838 l 821 1042 z m 544 349 l 821 349 l 821 204 z m 617 1201 l 821 1068 l 821 1221 l 692 1310 l 540 1310 l 411 1221 l 411 1068 z "},"ğ":{"ha":1032,"x_min":0,"x_max":0,"o":"m 28 606 l 28 435 l 821 0 l 1004 0 l 1004 521 l 219 521 l 821 838 l 821 1042 z m 610 1214 b 535 1292 567 1214 539 1246 l 399 1292 b 610 1089 403 1165 490 1089 b 822 1292 729 1089 818 1165 l 686 1292 b 610 1214 682 1246 653 1214 z m 544 349 l 821 349 l 821 204 z "},"ġ":{"ha":1032,"x_min":0,"x_max":0,"o":"m 821 1042 l 821 838 l 219 521 l 1004 521 l 1004 0 l 821 0 l 28 435 l 28 606 z m 778 1300 l 639 1300 l 596 1169 l 708 1089 l 822 1169 z m 821 204 l 821 349 l 544 349 z "},"ģ":{"ha":1032,"x_min":0,"x_max":0,"o":"m 28 606 l 28 435 l 821 0 l 1004 0 l 1004 521 l 219 521 l 821 838 l 821 1042 z m 815 -267 b 751 -319 813 -314 779 -319 l 751 -386 b 900 -267 838 -386 878 -351 l 936 -136 l 822 -53 l 707 -136 l 751 -267 z m 544 349 l 821 349 l 821 204 z "},"ĥ":{"ha":789,"x_min":0,"x_max":0,"o":"m 578 608 l 211 608 l 211 1042 l 28 1042 l 28 0 l 211 0 l 211 435 l 578 435 l 578 0 l 761 0 l 761 1042 l 578 1042 z m 394 1201 l 599 1068 l 599 1221 l 469 1310 l 318 1310 l 189 1221 l 189 1068 z "},"ħ":{"ha":789,"x_min":0,"x_max":0,"o":"m -83 751 l 28 751 l 28 0 l 211 0 l 211 435 l 578 435 l 578 0 l 761 0 l 761 751 l 872 751 l 872 883 l 761 883 l 761 1042 l 578 1042 l 578 883 l 211 883 l 211 1042 l 28 1042 l 28 883 l -83 883 z m 211 608 l 211 751 l 578 751 l 578 608 z "},"ì":{"ha":789,"x_min":0,"x_max":0,"o":"m 761 0 l 761 174 l 486 174 l 486 868 l 761 868 l 761 1042 l 28 1042 l 28 868 l 303 868 l 303 174 l 28 174 l 28 0 z m 269 1097 l 494 1097 l 128 1346 l 128 1181 z "},"í":{"ha":789,"x_min":0,"x_max":0,"o":"m 28 0 l 28 174 l 303 174 l 303 868 l 28 868 l 28 1042 l 761 1042 l 761 868 l 486 868 l 486 174 l 761 174 l 761 0 z m 647 1181 l 647 1346 l 281 1097 l 506 1097 z "},"î":{"ha":789,"x_min":0,"x_max":0,"o":"m 761 0 l 761 174 l 486 174 l 486 868 l 761 868 l 761 1042 l 28 1042 l 28 868 l 303 868 l 303 174 l 28 174 l 28 0 z m 394 1201 l 599 1068 l 599 1221 l 469 1310 l 318 1310 l 189 1221 l 189 1068 z "},"ĩ":{"ha":789,"x_min":0,"x_max":0,"o":"m 28 0 l 28 174 l 303 174 l 303 868 l 28 868 l 28 1042 l 761 1042 l 761 868 l 486 868 l 486 174 l 761 174 l 761 0 z m 493 1090 b 599 1135 535 1090 569 1106 l 599 1278 b 496 1219 578 1250 553 1219 b 294 1282 442 1219 361 1282 b 189 1238 253 1282 218 1267 l 189 1094 b 292 1153 210 1122 235 1153 b 493 1090 344 1153 426 1090 z "},"ï":{"ha":789,"x_min":0,"x_max":0,"o":"m 28 0 l 28 174 l 303 174 l 303 868 l 28 868 l 28 1042 l 761 1042 l 761 868 l 486 868 l 486 174 l 761 174 l 761 0 z m 576 1300 l 438 1300 l 394 1169 l 507 1089 l 621 1169 z m 350 1300 l 211 1300 l 168 1169 l 281 1089 l 394 1169 z "},"ī":{"ha":789,"x_min":0,"x_max":0,"o":"m 28 0 l 28 174 l 303 174 l 303 868 l 28 868 l 28 1042 l 761 1042 l 761 868 l 486 868 l 486 174 l 761 174 l 761 0 z m 189 1126 l 599 1126 l 599 1258 l 189 1258 z "},"ĭ":{"ha":789,"x_min":0,"x_max":0,"o":"m 761 0 l 761 174 l 486 174 l 486 868 l 761 868 l 761 1042 l 28 1042 l 28 868 l 303 868 l 303 174 l 28 174 l 28 0 z m 393 1214 b 318 1292 350 1214 322 1246 l 182 1292 b 393 1089 186 1165 274 1089 b 606 1292 513 1089 601 1165 l 469 1292 b 393 1214 465 1246 436 1214 z "},"į":{"ha":789,"x_min":0,"x_max":0,"o":"m 543 -151 b 494 -175 526 -165 511 -175 b 467 -146 476 -175 467 -164 l 467 0 l 761 0 l 761 174 l 486 174 l 486 868 l 761 868 l 761 1042 l 28 1042 l 28 868 l 303 868 l 303 174 l 28 174 l 28 0 l 322 0 l 322 -165 b 478 -321 322 -267 378 -321 b 613 -271 529 -321 574 -303 z "},"ĵ":{"ha":619,"x_min":0,"x_max":0,"o":"m 592 1042 l 408 1042 l 408 203 l 28 435 l 28 225 l 408 0 l 592 0 z m 388 1201 l 592 1068 l 592 1221 l 463 1310 l 311 1310 l 182 1221 l 182 1068 z "},"ķ":{"ha":758,"x_min":0,"x_max":0,"o":"m 211 668 l 211 1042 l 28 1042 l 28 0 l 211 0 l 211 374 l 731 -22 l 731 201 l 292 522 l 731 840 l 731 1064 z m 407 -267 b 343 -319 404 -314 371 -319 l 343 -386 b 492 -267 429 -386 469 -351 l 528 -136 l 414 -53 l 299 -136 l 343 -267 z "},"ĺ":{"ha":872,"x_min":0,"x_max":0,"o":"m 28 1042 l 211 1042 l 211 200 l 844 590 l 844 382 l 211 0 l 28 0 z m 394 1181 l 394 1346 l 28 1097 l 253 1097 z "},"ľ":{"ha":872,"x_min":0,"x_max":0,"o":"m 28 1042 l 211 1042 l 211 200 l 844 590 l 844 382 l 211 0 l 28 0 z m 431 896 b 357 822 426 836 393 822 l 357 749 b 524 914 460 753 488 788 l 563 1047 l 436 1139 l 308 1047 l 363 896 z "},"ļ":{"ha":872,"x_min":0,"x_max":0,"o":"m 28 0 l 211 0 l 844 382 l 844 590 l 211 200 l 211 1042 l 28 1042 z m 401 -267 b 338 -319 399 -314 365 -319 l 338 -386 b 486 -267 424 -386 464 -351 l 522 -136 l 408 -53 l 293 -136 l 338 -267 z "},"ŀ":{"ha":872,"x_min":0,"x_max":0,"o":"m 28 0 l 211 0 l 844 382 l 844 590 l 211 200 l 211 1042 l 28 1042 z m 632 704 l 490 806 l 350 704 l 403 542 l 578 542 z "},"ł":{"ha":1056,"x_min":0,"x_max":0,"o":"m 28 226 l 211 336 l 211 0 l 394 0 l 1028 382 l 1028 590 l 394 200 l 394 447 l 661 608 l 661 815 l 394 651 l 394 1042 l 211 1042 l 211 539 l 28 426 z "},"ń":{"ha":890,"x_min":0,"x_max":0,"o":"m 219 0 l 28 0 l 28 1042 l 207 1042 l 207 544 l 350 1042 l 542 1042 l 863 0 l 669 0 l 446 772 z m 549 1181 l 549 1346 l 182 1097 l 407 1097 z "},"ň":{"ha":890,"x_min":0,"x_max":0,"o":"m 446 772 l 669 0 l 863 0 l 542 1042 l 350 1042 l 207 544 l 207 1042 l 28 1042 l 28 0 l 219 0 z m 171 1339 l 171 1186 l 300 1097 l 451 1097 l 581 1186 l 581 1339 l 376 1206 z "},"ñ":{"ha":890,"x_min":0,"x_max":0,"o":"m 219 0 l 28 0 l 28 1042 l 207 1042 l 207 544 l 350 1042 l 542 1042 l 863 0 l 669 0 l 446 772 z m 544 1090 b 650 1135 586 1090 621 1106 l 650 1278 b 547 1219 629 1250 604 1219 b 346 1282 493 1219 413 1282 b 240 1238 304 1282 269 1267 l 240 1094 b 343 1153 261 1122 286 1153 b 544 1090 396 1153 478 1090 z "},"ņ":{"ha":890,"x_min":0,"x_max":0,"o":"m 446 772 l 669 0 l 863 0 l 542 1042 l 350 1042 l 207 544 l 207 1042 l 28 1042 l 28 0 l 219 0 z m 411 -267 b 347 -319 408 -314 375 -319 l 347 -386 b 496 -267 433 -386 474 -351 l 532 -136 l 418 -53 l 303 -136 l 347 -267 z "},"ò":{"ha":1167,"x_min":0,"x_max":0,"o":"m 1139 435 l 1139 606 l 703 1042 l 464 1042 l 28 606 l 28 435 l 463 0 l 704 0 z m 583 129 l 193 521 l 583 911 l 974 521 z m 471 1097 l 696 1097 l 329 1346 l 329 1181 z "},"ó":{"ha":1167,"x_min":0,"x_max":0,"o":"m 704 0 l 463 0 l 28 435 l 28 606 l 464 1042 l 703 1042 l 1139 606 l 1139 435 z m 974 521 l 583 911 l 193 521 l 583 129 z m 842 1181 l 842 1346 l 475 1097 l 700 1097 z "},"ô":{"ha":1167,"x_min":0,"x_max":0,"o":"m 1139 435 l 1139 606 l 703 1042 l 464 1042 l 28 606 l 28 435 l 463 0 l 704 0 z m 583 129 l 193 521 l 583 911 l 974 521 z m 583 1201 l 788 1068 l 788 1221 l 658 1310 l 507 1310 l 378 1221 l 378 1068 z "},"õ":{"ha":1167,"x_min":0,"x_max":0,"o":"m 704 0 l 463 0 l 28 435 l 28 606 l 464 1042 l 703 1042 l 1139 606 l 1139 435 z m 974 521 l 583 911 l 193 521 l 583 129 z m 682 1090 b 788 1135 724 1090 758 1106 l 788 1278 b 685 1219 767 1250 742 1219 b 483 1282 631 1219 550 1282 b 378 1238 442 1282 407 1267 l 378 1094 b 481 1153 399 1122 424 1153 b 682 1090 533 1153 615 1090 z "},"ö":{"ha":1167,"x_min":0,"x_max":0,"o":"m 704 0 l 463 0 l 28 435 l 28 606 l 464 1042 l 703 1042 l 1139 606 l 1139 435 z m 974 521 l 583 911 l 193 521 l 583 129 z m 539 1300 l 400 1300 l 357 1169 l 469 1089 l 583 1169 z m 765 1300 l 626 1300 l 583 1169 l 696 1089 l 810 1169 z "},"ō":{"ha":1167,"x_min":0,"x_max":0,"o":"m 704 0 l 463 0 l 28 435 l 28 606 l 464 1042 l 703 1042 l 1139 606 l 1139 435 z m 974 521 l 583 911 l 193 521 l 583 129 z m 378 1126 l 788 1126 l 788 1258 l 378 1258 z "},"ŏ":{"ha":1167,"x_min":0,"x_max":0,"o":"m 1139 435 l 1139 606 l 703 1042 l 464 1042 l 28 606 l 28 435 l 463 0 l 704 0 z m 583 129 l 193 521 l 583 911 l 974 521 z m 582 1214 b 507 1292 539 1214 511 1246 l 371 1292 b 582 1089 375 1165 463 1089 b 794 1292 701 1089 790 1165 l 658 1292 b 582 1214 654 1246 625 1214 z "},"ő":{"ha":1167,"x_min":0,"x_max":0,"o":"m 704 0 l 463 0 l 28 435 l 28 606 l 464 1042 l 703 1042 l 1139 606 l 1139 435 z m 974 521 l 583 911 l 193 521 l 583 129 z m 654 1179 l 654 1338 l 354 1097 l 543 1097 z m 896 1179 l 896 1338 l 590 1097 l 779 1097 z "},"ǿ":{"ha":1279,"x_min":0,"x_max":0,"o":"m 1036 1042 l 1279 1042 l 1019 781 l 1196 606 l 1196 435 l 761 0 l 519 0 l 381 139 l 243 0 l 0 0 l 258 260 l 85 435 l 85 606 l 521 1042 l 760 1042 l 899 903 z m 640 129 l 1031 521 l 894 656 l 506 264 z m 250 521 l 383 386 l 774 778 l 640 911 z m 901 1181 l 901 1346 l 535 1097 l 760 1097 z "},"ŕ":{"ha":794,"x_min":0,"x_max":0,"o":"m 432 436 l 767 0 l 549 0 l 217 435 l 546 868 l 211 868 l 211 0 l 28 0 l 28 1042 l 761 1042 l 761 868 z m 608 1181 l 608 1346 l 242 1097 l 467 1097 z "},"ŗ":{"ha":794,"x_min":0,"x_max":0,"o":"m 761 868 l 761 1042 l 28 1042 l 28 0 l 211 0 l 211 868 l 546 868 l 217 435 l 549 0 l 767 0 l 432 436 z m 363 -267 b 299 -319 360 -314 326 -319 l 299 -386 b 447 -267 385 -386 425 -351 l 483 -136 l 369 -53 l 254 -136 l 299 -267 z "},"ř":{"ha":794,"x_min":0,"x_max":0,"o":"m 761 868 l 761 1042 l 28 1042 l 28 0 l 211 0 l 211 868 l 546 868 l 217 435 l 549 0 l 767 0 l 432 436 z m 178 1339 l 178 1186 l 307 1097 l 458 1097 l 588 1186 l 588 1339 l 383 1206 z "},"ś":{"ha":769,"x_min":0,"x_max":0,"o":"m 742 1043 l 742 840 l 317 608 l 742 608 l 742 422 l 28 0 l 28 203 l 453 435 l 28 435 l 28 621 z m 742 1181 l 742 1346 l 375 1097 l 600 1097 z "},"ŝ":{"ha":769,"x_min":0,"x_max":0,"o":"m 28 621 l 28 435 l 453 435 l 28 203 l 28 0 l 742 422 l 742 608 l 317 608 l 742 840 l 742 1043 z m 538 1201 l 742 1068 l 742 1221 l 613 1310 l 461 1310 l 332 1221 l 332 1068 z "},"š":{"ha":769,"x_min":0,"x_max":0,"o":"m 28 621 l 28 435 l 453 435 l 28 203 l 28 0 l 742 422 l 742 608 l 317 608 l 742 840 l 742 1043 z m 332 1339 l 332 1186 l 461 1097 l 613 1097 l 742 1186 l 742 1339 l 538 1206 z "},"ş":{"ha":769,"x_min":0,"x_max":0,"o":"m -43 -299 b 88 -328 -14 -315 36 -328 b 257 -174 174 -328 257 -276 b 158 -47 257 -101 206 -58 l 158 76 l 742 422 l 742 608 l 317 608 l 742 840 l 742 1043 l 28 621 l 28 435 l 453 435 l 28 203 l 28 90 l 26 90 l 26 -128 b 117 -165 89 -121 117 -137 b 72 -201 117 -189 97 -201 b -4 -171 31 -201 -4 -171 z "},"ș":{"ha":769,"x_min":0,"x_max":0,"o":"m 28 621 l 28 435 l 453 435 l 28 203 l 28 0 l 742 422 l 742 608 l 317 608 l 742 840 l 742 1043 z m 378 -267 b 314 -319 375 -314 342 -319 l 314 -386 b 463 -267 400 -386 440 -351 l 499 -136 l 385 -53 l 269 -136 l 314 -267 z "},"ť":{"ha":789,"x_min":0,"x_max":0,"o":"m 28 868 l 303 868 l 303 0 l 486 0 l 486 868 l 761 868 l 761 1042 l 28 1042 z m 190 1339 l 190 1186 l 319 1097 l 471 1097 l 600 1186 l 600 1339 l 396 1206 z "},"ţ":{"ha":789,"x_min":0,"x_max":0,"o":"m 261 -299 b 392 -328 290 -315 340 -328 b 561 -174 478 -328 561 -276 b 463 -47 561 -101 510 -58 l 463 0 l 486 0 l 486 868 l 761 868 l 761 1042 l 28 1042 l 28 868 l 303 868 l 303 0 l 331 0 l 331 -128 b 421 -165 393 -121 421 -137 b 376 -201 421 -189 401 -201 b 300 -171 335 -201 300 -171 z "},"ț":{"ha":789,"x_min":0,"x_max":0,"o":"m 28 868 l 303 868 l 303 0 l 486 0 l 486 868 l 761 868 l 761 1042 l 28 1042 z m 388 -267 b 324 -319 385 -314 351 -319 l 324 -386 b 472 -267 410 -386 450 -351 l 508 -136 l 394 -53 l 279 -136 l 324 -267 z "},"ŧ":{"ha":789,"x_min":0,"x_max":0,"o":"m 156 435 l 303 435 l 303 0 l 486 0 l 486 435 l 635 435 l 635 608 l 486 608 l 486 868 l 761 868 l 761 1042 l 28 1042 l 28 868 l 303 868 l 303 608 l 156 608 z "},"ù":{"ha":890,"x_min":0,"x_max":0,"o":"m 444 269 l 221 1042 l 28 1042 l 349 0 l 540 0 l 683 497 l 683 0 l 863 0 l 863 1042 l 671 1042 z m 417 1097 l 642 1097 l 275 1346 l 275 1181 z "},"ú":{"ha":890,"x_min":0,"x_max":0,"o":"m 444 269 l 221 1042 l 28 1042 l 349 0 l 540 0 l 683 497 l 683 0 l 863 0 l 863 1042 l 671 1042 z m 683 1181 l 683 1346 l 317 1097 l 542 1097 z "},"û":{"ha":890,"x_min":0,"x_max":0,"o":"m 444 269 l 221 1042 l 28 1042 l 349 0 l 540 0 l 683 497 l 683 0 l 863 0 l 863 1042 l 671 1042 z m 474 1201 l 678 1068 l 678 1221 l 549 1310 l 397 1310 l 268 1221 l 268 1068 z "},"ũ":{"ha":890,"x_min":0,"x_max":0,"o":"m 444 269 l 221 1042 l 28 1042 l 349 0 l 540 0 l 683 497 l 683 0 l 863 0 l 863 1042 l 671 1042 z m 586 1090 b 692 1135 628 1090 663 1106 l 692 1278 b 589 1219 671 1250 646 1219 b 388 1282 535 1219 454 1282 b 282 1238 346 1282 311 1267 l 282 1094 b 385 1153 303 1122 328 1153 b 586 1090 438 1153 519 1090 z "},"ü":{"ha":890,"x_min":0,"x_max":0,"o":"m 444 269 l 221 1042 l 28 1042 l 349 0 l 540 0 l 683 497 l 683 0 l 863 0 l 863 1042 l 671 1042 z m 668 1300 l 529 1300 l 486 1169 l 599 1089 l 713 1169 z m 442 1300 l 303 1300 l 260 1169 l 372 1089 l 486 1169 z "},"ū":{"ha":890,"x_min":0,"x_max":0,"o":"m 444 269 l 221 1042 l 28 1042 l 349 0 l 540 0 l 683 497 l 683 0 l 863 0 l 863 1042 l 671 1042 z m 282 1126 l 692 1126 l 692 1258 l 282 1258 z "},"ŭ":{"ha":890,"x_min":0,"x_max":0,"o":"m 444 269 l 221 1042 l 28 1042 l 349 0 l 540 0 l 683 497 l 683 0 l 863 0 l 863 1042 l 671 1042 z m 486 1214 b 411 1292 443 1214 415 1246 l 275 1292 b 486 1089 279 1165 367 1089 b 699 1292 606 1089 694 1165 l 563 1292 b 486 1214 558 1246 529 1214 z "},"ů":{"ha":890,"x_min":0,"x_max":0,"o":"m 444 269 l 221 1042 l 28 1042 l 349 0 l 540 0 l 683 497 l 683 0 l 863 0 l 863 1042 l 671 1042 z m 332 1200 b 486 1046 332 1115 401 1046 b 640 1200 571 1046 640 1115 b 486 1354 640 1285 571 1354 b 332 1200 401 1354 332 1285 z m 432 1200 b 486 1254 432 1231 456 1254 b 540 1200 517 1254 540 1231 b 486 1146 540 1169 517 1146 b 432 1200 456 1146 432 1169 z "},"ű":{"ha":890,"x_min":0,"x_max":0,"o":"m 444 269 l 221 1042 l 28 1042 l 349 0 l 540 0 l 683 497 l 683 0 l 863 0 l 863 1042 l 671 1042 z m 557 1179 l 557 1338 l 257 1097 l 446 1097 z m 799 1179 l 799 1338 l 493 1097 l 682 1097 z "},"ų":{"ha":890,"x_min":0,"x_max":0,"o":"m 924 -151 b 875 -175 907 -165 892 -175 b 847 -146 857 -175 847 -164 l 847 0 l 863 0 l 863 1042 l 671 1042 l 444 269 l 221 1042 l 28 1042 l 349 0 l 540 0 l 683 497 l 683 0 l 703 0 l 703 -165 b 858 -321 703 -267 758 -321 b 993 -271 910 -321 954 -303 z "},"ẁ":{"ha":1161,"x_min":0,"x_max":0,"o":"m 454 414 l 710 414 l 1133 1042 l 910 1042 l 581 551 l 251 1042 l 28 1042 z m 454 0 l 710 0 l 1133 615 l 910 615 l 581 142 l 251 615 l 28 615 z m 539 1097 l 764 1097 l 397 1346 l 397 1181 z "},"ẃ":{"ha":1161,"x_min":0,"x_max":0,"o":"m 28 1042 l 251 1042 l 581 551 l 910 1042 l 1133 1042 l 710 414 l 454 414 z m 28 615 l 251 615 l 581 142 l 910 615 l 1133 615 l 710 0 l 454 0 z m 819 1181 l 819 1346 l 453 1097 l 678 1097 z "},"ŵ":{"ha":1161,"x_min":0,"x_max":0,"o":"m 454 414 l 710 414 l 1133 1042 l 910 1042 l 581 551 l 251 1042 l 28 1042 z m 454 0 l 710 0 l 1133 615 l 910 615 l 581 142 l 251 615 l 28 615 z m 581 1201 l 785 1068 l 785 1221 l 656 1310 l 504 1310 l 375 1221 l 375 1068 z "},"ẅ":{"ha":1161,"x_min":0,"x_max":0,"o":"m 28 1042 l 251 1042 l 581 551 l 910 1042 l 1133 1042 l 710 414 l 454 414 z m 28 615 l 251 615 l 581 142 l 910 615 l 1133 615 l 710 0 l 454 0 z m 536 1300 l 397 1300 l 354 1169 l 467 1089 l 581 1169 z m 763 1300 l 624 1300 l 581 1169 l 693 1089 l 807 1169 z "},"ỳ":{"ha":751,"x_min":0,"x_max":0,"o":"m 724 1042 l 528 1042 l 382 661 l 231 1042 l 28 1042 l 471 0 l 663 0 l 478 435 l 479 435 z m 292 1097 l 517 1097 l 150 1346 l 150 1181 z "},"ý":{"ha":751,"x_min":0,"x_max":0,"o":"m 479 435 l 478 435 l 663 0 l 471 0 l 28 1042 l 231 1042 l 382 661 l 528 1042 l 724 1042 z m 628 1181 l 628 1346 l 261 1097 l 486 1097 z "},"ŷ":{"ha":751,"x_min":0,"x_max":0,"o":"m 724 1042 l 528 1042 l 382 661 l 231 1042 l 28 1042 l 471 0 l 663 0 l 478 435 l 479 435 z m 376 1201 l 581 1068 l 581 1221 l 451 1310 l 300 1310 l 171 1221 l 171 1068 z "},"ÿ":{"ha":751,"x_min":0,"x_max":0,"o":"m 479 435 l 478 435 l 663 0 l 471 0 l 28 1042 l 231 1042 l 382 661 l 528 1042 l 724 1042 z m 557 1300 l 418 1300 l 375 1169 l 488 1089 l 601 1169 z m 331 1300 l 192 1300 l 149 1169 l 261 1089 l 375 1169 z "},"ź":{"ha":953,"x_min":0,"x_max":0,"o":"m 211 1042 l 211 836 l 635 608 l 28 608 l 28 415 l 742 0 l 742 206 l 315 435 l 925 435 l 925 626 z m 578 1181 l 578 1346 l 211 1097 l 436 1097 z "},"ž":{"ha":953,"x_min":0,"x_max":0,"o":"m 211 1042 l 211 836 l 635 608 l 28 608 l 28 415 l 742 0 l 742 206 l 315 435 l 925 435 l 925 626 z m 211 1339 l 211 1186 l 340 1097 l 492 1097 l 621 1186 l 621 1339 l 417 1206 z "},"ż":{"ha":953,"x_min":0,"x_max":0,"o":"m 211 1042 l 211 836 l 635 608 l 28 608 l 28 415 l 742 0 l 742 206 l 315 435 l 925 435 l 925 626 z m 544 1300 l 406 1300 l 363 1169 l 475 1089 l 589 1169 z "},"Ĳ":{"ha":1111,"x_min":0,"x_max":0,"o":"m 28 0 l 211 0 l 211 1042 l 28 1042 z m 1083 1042 l 900 1042 l 900 200 l 267 590 l 267 382 l 900 0 l 1083 0 z "},"ı":{"ha":789,"x_min":0,"x_max":0,"o":"m 761 0 l 761 174 l 486 174 l 486 868 l 761 868 l 761 1042 l 28 1042 l 28 868 l 303 868 l 303 174 l 28 174 l 28 0 z "},"ﬁ":{"ha":1521,"x_min":0,"x_max":0,"o":"m 394 1042 l 211 1042 l 211 608 l 28 608 l 28 435 l 211 435 l 211 0 l 394 0 l 394 435 l 1035 435 l 1035 174 l 760 174 l 760 0 l 1493 0 l 1493 174 l 1218 174 l 1218 435 l 1493 435 l 1493 608 l 394 608 l 394 839 l 761 613 l 761 806 z "},"ﬀ":{"ha":1433,"x_min":0,"x_max":0,"o":"m 1406 1042 l 843 608 l 449 608 l 449 839 l 843 613 l 843 806 l 449 1042 l 265 1042 l 265 608 l 28 608 l 28 435 l 265 435 l 265 0 l 449 0 l 449 435 l 856 435 l 856 0 l 1039 0 l 1039 435 l 1406 435 l 1406 608 l 1092 608 l 1406 838 z "},"ﬂ":{"ha":1349,"x_min":0,"x_max":0,"o":"m 761 0 l 944 0 l 1321 226 l 1321 435 l 944 197 l 944 742 l 394 1042 l 211 1042 l 211 608 l 28 608 l 28 435 l 211 435 l 211 0 l 394 0 l 394 435 l 703 435 l 703 608 l 394 608 l 394 839 l 761 650 z "},"ˇ":{"ha":549,"x_min":0,"x_max":0,"o":"m 69 1339 l 69 1186 l 199 1097 l 350 1097 l 479 1186 l 479 1339 l 275 1206 z "},"ˆ":{"ha":549,"x_min":0,"x_max":0,"o":"m 275 1201 l 479 1068 l 479 1221 l 350 1310 l 199 1310 l 69 1221 l 69 1068 z "},"´":{"ha":506,"x_min":0,"x_max":0,"o":"m 436 1181 l 436 1346 l 69 1097 l 294 1097 z "},"`":{"ha":506,"x_min":0,"x_max":0,"o":"m 211 1097 l 436 1097 l 69 1346 l 69 1181 z "},"¯":{"ha":549,"x_min":0,"x_max":0,"o":"m 69 1126 l 479 1126 l 479 1258 l 69 1258 z "},"˘":{"ha":563,"x_min":0,"x_max":0,"o":"m 281 1214 b 206 1292 238 1214 210 1246 l 69 1292 b 281 1089 74 1165 161 1089 b 493 1292 400 1089 489 1165 l 357 1292 b 281 1214 353 1246 324 1214 z "},"˚":{"ha":447,"x_min":0,"x_max":0,"o":"m 69 1200 b 224 1046 69 1115 139 1046 b 378 1200 308 1046 378 1115 b 224 1354 378 1285 308 1354 b 69 1200 139 1354 69 1285 z m 169 1200 b 224 1254 169 1231 193 1254 b 278 1200 254 1254 278 1231 b 224 1146 278 1169 254 1146 b 169 1200 193 1146 169 1169 z "},"˜":{"ha":549,"x_min":0,"x_max":0,"o":"m 374 1090 b 479 1135 415 1090 450 1106 l 479 1278 b 376 1219 458 1250 433 1219 b 175 1282 322 1219 242 1282 b 69 1238 133 1282 99 1267 l 69 1094 b 172 1153 90 1122 115 1153 b 374 1090 225 1153 307 1090 z "},"˙":{"ha":365,"x_min":0,"x_max":0,"o":"m 251 1300 l 113 1300 l 69 1169 l 182 1089 l 296 1169 z "},"˝":{"ha":681,"x_min":0,"x_max":0,"o":"m 369 1179 l 369 1338 l 69 1097 l 258 1097 z m 611 1179 l 611 1338 l 306 1097 l 494 1097 z "},"¨":{"ha":592,"x_min":0,"x_max":0,"o":"m 251 1300 l 113 1300 l 69 1169 l 182 1089 l 296 1169 z m 478 1300 l 339 1300 l 296 1169 l 408 1089 l 522 1169 z "},"¸":{"ha":439,"x_min":0,"x_max":0,"o":"m 69 -299 b 200 -328 99 -315 149 -328 b 369 -174 286 -328 369 -276 b 271 -47 369 -101 318 -58 l 271 90 l 139 90 l 139 -128 b 229 -165 201 -121 229 -137 b 185 -201 229 -189 210 -201 b 108 -171 143 -201 108 -171 z "},"˛":{"ha":429,"x_min":0,"x_max":0,"o":"m 290 -151 b 242 -175 274 -165 258 -175 b 214 -146 224 -175 214 -164 l 214 92 l 69 92 l 69 -165 b 225 -321 69 -267 125 -321 b 360 -271 276 -321 321 -303 z "},"$":{"ha":450,"x_min":0,"x_max":0,"o":"m 172 838 b 35 664 93 817 35 749 b 206 468 35 551 131 506 b 311 376 263 439 311 417 b 228 301 311 328 274 301 b 107 404 174 301 129 357 l 28 328 b 172 204 51 275 108 225 l 172 121 l 275 121 l 275 200 b 422 378 358 218 422 286 b 265 563 422 482 339 526 b 144 664 203 593 144 618 b 225 740 144 711 181 740 b 340 639 278 740 318 685 l 421 715 b 275 839 396 768 338 819 l 275 921 l 172 921 z "},"¢":{"ha":539,"x_min":0,"x_max":0,"o":"m 301 843 b 28 521 146 818 28 688 b 301 199 28 354 146 222 l 301 121 l 404 121 l 404 197 b 511 236 443 203 479 217 l 457 328 b 404 304 440 317 424 308 l 404 739 b 458 717 424 735 442 726 l 511 806 b 404 843 479 825 443 838 l 404 921 l 301 921 z m 133 521 b 301 739 133 629 200 717 l 301 304 b 133 521 201 326 133 413 z "},"£":{"ha":557,"x_min":0,"x_max":0,"o":"m 529 565 l 529 669 l 425 669 b 219 846 408 763 324 846 b 28 664 115 846 28 768 b 182 471 28 561 94 514 b 257 383 233 446 257 419 b 58 314 257 343 229 303 l 58 208 l 529 208 l 529 313 l 326 313 b 367 399 350 338 365 367 b 240 561 371 483 314 525 b 138 664 178 592 138 618 b 218 740 138 711 174 740 b 336 599 271 740 332 690 l 336 565 z "},"¥":{"ha":561,"x_min":0,"x_max":0,"o":"m 226 471 l 226 311 l 61 311 l 61 208 l 500 208 l 500 311 l 335 311 l 335 471 l 500 471 l 500 572 l 351 572 l 533 833 l 410 833 l 281 638 l 151 833 l 28 833 l 210 572 l 61 572 l 61 471 z "},"€":{"ha":539,"x_min":0,"x_max":0,"o":"m 354 194 b 511 236 411 194 467 208 l 457 328 b 354 299 428 308 393 299 b 181 379 282 299 221 329 l 511 379 l 511 482 l 136 482 b 133 521 133 494 133 507 b 136 563 133 535 135 549 l 511 563 l 511 664 l 181 664 b 354 744 221 713 281 744 b 458 717 393 744 429 736 l 511 806 b 354 847 467 833 411 847 b 28 521 174 847 28 706 b 354 194 28 336 174 194 z "},"#":{"ha":757,"x_min":0,"x_max":0,"o":"m 129 260 l 129 0 l 228 0 l 228 260 l 529 260 l 529 0 l 628 0 l 628 260 l 729 260 l 729 357 l 628 357 l 628 685 l 729 685 l 729 782 l 628 782 l 628 1042 l 529 1042 l 529 782 l 228 782 l 228 1042 l 129 1042 l 129 782 l 28 782 l 28 685 l 129 685 l 129 357 l 28 357 l 28 260 z m 228 685 l 529 685 l 529 357 l 228 357 z "},"%":{"ha":831,"x_min":0,"x_max":0,"o":"m 28 0 l 132 0 l 803 1042 l 699 1042 z m 390 246 b 596 42 390 128 481 42 b 801 246 711 42 801 128 b 596 450 801 364 711 450 b 390 246 481 450 390 364 z m 710 246 b 596 132 710 178 661 132 b 482 246 531 132 482 178 b 596 360 482 314 531 360 b 710 246 661 360 710 314 z m 29 797 b 235 593 29 679 119 593 b 440 797 350 593 440 679 b 235 1001 440 915 350 1001 b 29 797 119 1001 29 915 z m 349 797 b 235 683 349 729 300 683 b 121 797 169 683 121 729 b 235 911 121 865 169 911 b 349 797 300 911 349 865 z "},"‰":{"ha":921,"x_min":0,"x_max":0,"o":"m 893 390 b 688 596 893 504 801 596 b 483 418 583 596 497 518 b 390 246 428 382 390 318 b 596 40 390 132 482 40 b 800 218 700 40 786 118 b 893 390 856 254 893 318 z m 29 797 b 235 593 29 679 119 593 b 440 797 350 593 440 679 b 235 1001 440 915 350 1001 b 29 797 119 1001 29 915 z m 28 0 l 132 0 l 803 1042 l 699 1042 z m 349 797 b 235 683 349 729 300 683 b 121 797 169 683 121 729 b 235 911 121 865 169 911 b 349 797 300 911 349 865 z m 479 246 b 499 308 479 269 486 290 b 688 186 529 236 603 186 l 697 186 b 596 129 678 151 640 129 b 479 246 529 129 479 182 z m 804 390 b 785 325 804 365 797 343 b 596 451 754 399 681 451 l 588 451 b 688 507 607 485 644 507 b 804 390 754 507 804 454 z m 596 361 b 708 276 649 361 694 325 b 688 275 701 275 694 275 b 575 360 633 275 589 310 b 596 361 582 361 589 361 z "},"⁄":{"ha":831,"x_min":0,"x_max":0,"o":"m 28 0 l 128 0 l 803 1042 l 703 1042 z "},"^":{"ha":757,"x_min":0,"x_max":0,"o":"m 308 1042 l 28 340 l 215 340 l 381 800 l 546 340 l 729 340 l 453 1042 z "},"~":{"ha":757,"x_min":0,"x_max":0,"o":"m 536 381 b 729 464 615 381 676 411 l 729 651 b 542 543 690 603 644 543 b 219 660 444 543 343 660 b 28 575 140 660 81 629 l 28 390 b 221 496 67 439 118 496 b 536 381 318 496 413 381 z "},"·":{"ha":338,"x_min":0,"x_max":0,"o":"m 310 426 l 168 528 l 28 426 l 81 264 l 256 264 z "},"+":{"ha":757,"x_min":0,"x_max":0,"o":"m 465 171 l 465 435 l 729 435 l 729 608 l 465 608 l 465 872 l 292 872 l 292 608 l 28 608 l 28 435 l 292 435 l 292 171 z "},"±":{"ha":757,"x_min":0,"x_max":0,"o":"m 465 340 l 465 604 l 729 604 l 729 778 l 465 778 l 465 1042 l 292 1042 l 292 778 l 28 778 l 28 604 l 292 604 l 292 340 z m 28 0 l 729 0 l 729 174 l 28 174 z "},"<":{"ha":757,"x_min":0,"x_max":0,"o":"m 28 449 l 729 171 l 729 357 l 269 521 l 729 685 l 729 872 l 28 593 z "},"=":{"ha":757,"x_min":0,"x_max":0,"o":"m 28 261 l 729 261 l 729 435 l 28 435 z m 28 608 l 729 608 l 729 782 l 28 782 z "},">":{"ha":757,"x_min":0,"x_max":0,"o":"m 729 593 l 28 872 l 28 685 l 488 521 l 28 357 l 28 171 l 729 449 z "},"|":{"ha":156,"x_min":0,"x_max":0,"o":"m 128 1042 l 28 1042 l 28 0 l 128 0 z "},"¦":{"ha":156,"x_min":0,"x_max":0,"o":"m 128 1042 l 28 1042 l 28 631 l 128 631 z m 128 411 l 28 411 l 28 0 l 128 0 z "},"×":{"ha":757,"x_min":0,"x_max":0,"o":"m 500 521 l 729 750 l 607 872 l 378 643 l 150 872 l 28 750 l 256 521 l 28 293 l 150 171 l 378 399 l 607 171 l 729 293 z "},"÷":{"ha":757,"x_min":0,"x_max":0,"o":"m 290 872 l 238 710 l 378 608 l 28 608 l 28 435 l 378 435 l 238 333 l 290 171 l 465 171 l 519 333 l 378 435 l 729 435 l 729 608 l 378 608 l 519 710 l 465 872 z "},"−":{"ha":757,"x_min":0,"x_max":0,"o":"m 28 435 l 729 435 l 729 608 l 28 608 z "},"≈":{"ha":757,"x_min":0,"x_max":0,"o":"m 536 554 b 729 638 615 554 676 585 l 729 825 b 542 717 690 776 644 717 b 219 833 444 717 343 833 b 28 749 140 833 81 803 l 28 564 b 221 669 67 613 118 669 b 536 554 318 669 413 554 z m 536 207 b 729 290 615 207 676 238 l 729 478 b 542 369 690 429 644 369 b 219 486 444 369 343 486 b 28 401 140 486 81 456 l 28 217 b 221 322 67 265 118 322 b 536 207 318 322 413 207 z "},"≠":{"ha":757,"x_min":0,"x_max":0,"o":"m 28 261 l 147 261 l 106 185 l 286 185 l 328 261 l 729 261 l 729 435 l 422 435 l 517 608 l 729 608 l 729 782 l 610 782 l 651 857 l 471 857 l 429 782 l 28 782 l 28 608 l 336 608 l 242 435 l 28 435 z "},"≤":{"ha":757,"x_min":0,"x_max":0,"o":"m 28 449 l 729 174 l 28 174 l 28 0 l 729 0 l 729 357 l 269 521 l 729 685 l 729 872 l 28 593 z "},"≥":{"ha":757,"x_min":0,"x_max":0,"o":"m 729 174 l 28 174 l 28 0 l 729 0 z m 729 593 l 28 872 l 28 685 l 488 521 l 28 357 l 28 174 l 729 449 z "},"¬":{"ha":757,"x_min":0,"x_max":0,"o":"m 729 0 l 729 608 l 28 608 l 28 435 l 556 435 l 556 0 z "},"°":{"ha":467,"x_min":0,"x_max":0,"o":"m 28 836 b 233 631 28 722 119 631 b 439 836 347 631 439 722 b 233 1042 439 950 347 1042 b 28 836 119 1042 28 950 z m 349 836 b 233 721 349 772 297 721 b 118 836 169 721 118 772 b 233 951 118 900 169 951 b 349 836 297 951 349 900 z "},"_":{"ha":757,"x_min":0,"x_max":0,"o":"m 729 -100 l 729 0 l 28 0 l 28 -100 z "},"-":{"ha":479,"x_min":0,"x_max":0,"o":"m 28 435 l 451 435 l 451 608 l 28 608 z "},"—":{"ha":1458,"x_min":0,"x_max":0,"o":"m 1431 435 l 1431 608 l 28 608 l 28 435 z "},"–":{"ha":757,"x_min":0,"x_max":0,"o":"m 28 435 l 729 435 l 729 608 l 28 608 z "},"'":{"ha":264,"x_min":0,"x_max":0,"o":"m 182 631 l 236 1042 l 28 1042 l 82 631 z "},"\"":{"ha":474,"x_min":0,"x_max":0,"o":"m 182 631 l 236 1042 l 28 1042 l 82 631 z m 392 631 l 446 1042 l 238 1042 l 292 631 z "},"«":{"ha":632,"x_min":0,"x_max":0,"o":"m 378 643 l 378 399 l 604 174 l 604 399 l 478 521 l 604 643 l 604 868 z m 28 521 l 378 174 l 378 399 l 250 521 l 378 643 l 378 868 z "},"‹":{"ha":404,"x_min":0,"x_max":0,"o":"m 28 521 l 376 174 l 376 399 l 250 521 l 376 643 l 376 868 z "},"›":{"ha":404,"x_min":0,"x_max":0,"o":"m 28 868 l 28 643 l 154 521 l 28 399 l 28 174 l 376 521 z "},"»":{"ha":632,"x_min":0,"x_max":0,"o":"m 28 868 l 28 643 l 154 521 l 28 399 l 28 174 l 254 399 l 254 174 l 604 521 l 254 868 l 254 643 l 382 521 l 254 399 l 254 643 z "},"‚":{"ha":338,"x_min":0,"x_max":0,"o":"m 176 0 b 72 -74 172 -60 108 -74 l 72 -147 b 265 0 175 -143 229 -107 b 310 163 290 75 310 163 l 169 264 l 28 163 l 82 0 z "},"„":{"ha":619,"x_min":0,"x_max":0,"o":"m 176 0 b 72 -74 172 -60 108 -74 l 72 -147 b 265 0 175 -143 229 -107 b 310 163 290 75 310 163 l 169 264 l 28 163 l 82 0 z m 458 0 b 354 -74 454 -60 390 -74 l 354 -147 b 547 0 457 -143 511 -107 b 592 163 572 75 592 163 l 451 264 l 310 163 l 364 0 z "},"“":{"ha":619,"x_min":0,"x_max":0,"o":"m 443 894 b 547 968 447 954 511 968 l 547 1042 b 354 894 444 1038 390 1001 b 310 732 329 819 310 732 l 450 631 l 592 732 l 538 894 z m 161 894 b 265 968 165 954 229 968 l 265 1042 b 72 894 163 1038 108 1001 b 28 732 47 819 28 732 l 168 631 l 310 732 l 256 894 z "},"”":{"ha":619,"x_min":0,"x_max":0,"o":"m 176 778 b 72 704 172 718 108 704 l 72 631 b 265 778 175 635 229 671 b 310 940 290 853 310 940 l 169 1042 l 28 940 l 82 778 z m 458 778 b 354 704 454 718 390 704 l 354 631 b 547 778 457 635 511 671 b 592 940 572 853 592 940 l 451 1042 l 310 940 l 364 778 z "},"‘":{"ha":338,"x_min":0,"x_max":0,"o":"m 161 894 b 265 968 165 954 229 968 l 265 1042 b 72 894 163 1038 108 1001 b 28 732 47 819 28 732 l 168 631 l 310 732 l 256 894 z "},"’":{"ha":338,"x_min":0,"x_max":0,"o":"m 176 778 b 72 704 172 718 108 704 l 72 631 b 265 778 175 635 229 671 b 310 940 290 853 310 940 l 169 1042 l 28 940 l 82 778 z "},",":{"ha":338,"x_min":0,"x_max":0,"o":"m 176 0 b 72 -74 172 -60 108 -74 l 72 -147 b 265 0 175 -143 229 -107 b 310 163 290 75 310 163 l 169 264 l 28 163 l 82 0 z "},".":{"ha":338,"x_min":0,"x_max":0,"o":"m 256 264 l 81 264 l 28 101 l 168 0 l 310 101 z "},":":{"ha":338,"x_min":0,"x_max":0,"o":"m 256 0 l 81 0 l 28 163 l 168 264 l 310 163 z m 256 790 l 81 790 l 28 628 l 168 526 l 310 628 z "},";":{"ha":338,"x_min":0,"x_max":0,"o":"m 176 0 b 72 -74 172 -60 108 -74 l 72 -147 b 265 0 175 -143 229 -107 b 310 163 290 75 310 163 l 169 264 l 28 163 l 82 0 z m 256 790 l 81 790 l 28 628 l 168 526 l 310 628 z "},"…":{"ha":901,"x_min":0,"x_max":0,"o":"m 310 163 l 168 264 l 28 163 l 81 0 l 256 0 z m 874 163 l 732 264 l 592 163 l 644 0 l 819 0 z m 592 163 l 450 264 l 310 163 l 363 0 l 538 0 z "},"?":{"ha":669,"x_min":0,"x_max":0,"o":"m 394 165 l 258 260 l 642 871 l 642 1042 l 28 1042 l 28 869 l 438 869 l 247 260 l 113 163 l 165 0 l 340 0 z "},"¿":{"ha":669,"x_min":0,"x_max":0,"o":"m 275 876 l 411 782 l 28 171 l 28 0 l 642 0 l 642 172 l 232 172 l 422 782 l 557 879 l 504 1042 l 329 1042 z "},"!":{"ha":338,"x_min":0,"x_max":0,"o":"m 310 165 l 174 260 l 272 1042 l 64 1042 l 163 260 l 28 163 l 81 0 l 256 0 z "},"¡":{"ha":338,"x_min":0,"x_max":0,"o":"m 256 1042 l 81 1042 l 28 879 l 163 782 l 64 0 l 272 0 l 174 782 l 310 876 z "},"(":{"ha":306,"x_min":0,"x_max":0,"o":"m 28 521 b 278 -22 28 299 136 99 l 278 117 b 128 521 194 213 128 356 b 278 925 128 686 194 829 l 278 1064 b 28 521 136 943 28 743 z "},")":{"ha":306,"x_min":0,"x_max":0,"o":"m 278 521 b 28 1064 278 743 169 943 l 28 925 b 178 521 111 829 178 686 b 28 117 178 356 111 213 l 28 -22 b 278 521 169 99 278 299 z "},"[":{"ha":306,"x_min":0,"x_max":0,"o":"m 278 0 l 278 96 l 128 96 l 128 946 l 278 946 l 278 1042 l 28 1042 l 28 0 z "},"]":{"ha":306,"x_min":0,"x_max":0,"o":"m 278 0 l 278 1042 l 28 1042 l 28 946 l 178 946 l 178 96 l 28 96 l 28 0 z "},"{":{"ha":326,"x_min":0,"x_max":0,"o":"m 28 471 b 165 157 150 439 189 315 b 199 -22 154 83 175 1 l 299 -22 b 268 157 272 4 263 101 b 115 521 286 342 246 479 b 268 885 246 563 286 700 b 299 1064 263 940 272 1038 l 199 1064 b 165 885 175 1040 154 958 b 28 571 189 726 150 603 z "},"}":{"ha":326,"x_min":0,"x_max":0,"o":"m 299 571 b 161 885 176 603 138 726 b 128 1064 172 958 151 1040 l 28 1064 b 58 885 54 1038 64 940 b 211 521 40 700 81 563 b 58 157 81 479 40 342 b 28 -22 64 101 54 4 l 128 -22 b 161 157 151 1 172 83 b 299 471 138 315 176 439 z "},"/":{"ha":597,"x_min":0,"x_max":0,"o":"m 28 0 l 128 0 l 569 1042 l 469 1042 z "},"\\":{"ha":597,"x_min":0,"x_max":0,"o":"m 128 1042 l 28 1042 l 469 0 l 569 0 z "},"*":{"ha":711,"x_min":0,"x_max":0,"o":"m 411 981 l 411 1064 l 300 1064 l 300 981 l 242 1064 l 118 1064 l 254 868 l 125 868 l 125 757 l 254 757 l 28 435 l 154 435 l 300 643 l 300 435 l 411 435 l 411 643 l 557 435 l 683 435 l 457 757 l 583 757 l 583 868 l 457 868 l 593 1064 l 469 1064 z "},"•":{"ha":796,"x_min":0,"x_max":0,"o":"m 28 521 b 397 150 28 311 192 150 b 768 521 603 150 768 311 b 397 893 768 731 603 893 b 28 521 192 893 28 731 z "},"&":{"ha":1217,"x_min":0,"x_max":0,"o":"m 731 174 l 439 174 l 685 433 l 685 608 l 325 608 l 742 840 l 742 1042 l 28 611 l 28 435 l 461 435 l 224 190 l 224 0 l 914 0 l 914 435 l 1189 435 l 1189 608 l 914 608 l 731 433 z "},"†":{"ha":757,"x_min":0,"x_max":0,"o":"m 28 707 l 28 607 l 329 607 l 329 0 l 429 0 l 429 607 l 729 607 l 729 707 l 429 707 l 429 1042 l 329 1042 l 329 707 z "},"‡":{"ha":757,"x_min":0,"x_max":0,"o":"m 329 335 l 329 0 l 429 0 l 429 335 l 729 335 l 729 435 l 429 435 l 429 607 l 729 607 l 729 707 l 429 707 l 429 1042 l 329 1042 l 329 707 l 28 707 l 28 607 l 329 607 l 329 435 l 28 435 l 28 335 z "},"¶":{"ha":740,"x_min":0,"x_max":0,"o":"m 713 867 l 713 1042 l 28 1042 l 28 868 l 368 476 l 368 -183 l 551 -183 l 551 867 z "},"℗":{"ha":1157,"x_min":0,"x_max":0,"o":""},"©":{"ha":1142,"x_min":0,"x_max":0,"o":"m 28 521 b 571 -22 28 214 271 -22 b 1114 521 871 -22 1114 214 b 571 1064 1114 828 871 1064 b 28 521 271 1064 28 828 z m 128 521 b 571 967 128 772 324 967 b 1015 521 817 967 1015 772 b 571 75 1015 269 817 75 b 128 521 324 75 128 269 z m 579 299 b 358 521 453 299 358 394 b 579 744 358 647 453 744 b 764 638 663 744 726 703 l 840 714 b 579 847 781 796 688 847 b 253 521 399 847 253 706 b 579 194 253 336 399 194 b 840 328 686 194 781 247 l 764 404 b 579 299 726 339 663 299 z "},"®":{"ha":1142,"x_min":0,"x_max":0,"o":"m 28 521 b 571 -22 28 214 271 -22 b 1114 521 871 -22 1114 214 b 571 1064 1114 828 871 1064 b 28 521 271 1064 28 828 z m 128 521 b 571 967 128 772 324 967 b 1015 521 817 967 1015 772 b 571 75 1015 269 817 75 b 128 521 324 75 128 269 z m 603 469 b 699 360 668 469 693 422 b 721 208 701 336 707 282 l 835 208 b 811 361 819 285 814 331 b 736 517 801 449 772 489 b 803 651 775 549 803 594 b 603 833 803 764 710 833 l 349 833 l 349 208 l 458 208 l 458 469 z m 693 651 b 606 574 693 600 653 574 l 458 574 l 458 729 l 606 729 b 693 651 653 729 693 703 z "},"™":{"ha":1042,"x_min":0,"x_max":0,"o":"m 28 939 l 193 939 l 193 418 l 303 418 l 303 939 l 468 939 l 468 1043 l 28 1043 z m 679 1043 l 501 1043 l 501 418 l 608 418 l 608 878 l 711 418 l 804 418 l 907 878 l 907 418 l 1014 418 l 1014 1043 l 836 1043 l 757 663 z "},"@":{"ha":1011,"x_min":0,"x_max":0,"o":"m 568 -22 b 903 81 688 -24 813 15 l 865 181 b 569 74 788 113 682 74 b 128 518 306 74 128 254 b 569 968 128 783 306 968 b 883 693 746 968 883 850 b 758 479 883 590 835 519 l 632 831 l 517 831 l 296 210 l 404 210 l 453 353 b 571 336 490 343 531 336 b 699 350 615 336 658 340 l 749 210 l 857 210 l 793 383 b 983 692 906 438 983 540 b 569 1064 983 915 788 1064 b 28 517 260 1064 28 838 b 568 -22 28 193 261 -19 z m 574 706 l 665 446 b 571 438 635 440 604 438 b 485 449 540 438 513 442 z "}}}
